<svg id="CHART" xmlns="http://www.w3.org/2000/svg" xmlns:xlink="http://www.w3.org/1999/xlink" width="397.5" height="436" viewBox="0 0 397.5 436">
  <defs>
    <style>
      .cls-1, .cls-13, .cls-16, .cls-2, .cls-3, .cls-4 {
        fill: #fff;
      }

      .cls-1 {
        fill-opacity: 0.04;
        filter: url(#filter);
      }

      .cls-1, .cls-2, .cls-4 {
        fill-rule: evenodd;
      }

      .cls-2 {
        opacity: 0.2;
      }

      .cls-3 {
        font-size: 8.288px;
      }

      .cls-16, .cls-3 {
        font-family: "Helvetica Neue";
      }

      .cls-13, .cls-16, .cls-3 {
        text-transform: uppercase;
      }

      .cls-5, .cls-9 {
        fill: #ff5b3d;
      }

      .cls-11, .cls-14, .cls-5, .cls-7, .cls-9 {
        fill-opacity: 0;
        stroke-linejoin: round;
        stroke-width: 1px;
      }

      .cls-5 {
        stroke: #9ccbff;
      }

      .cls-6 {
        fill: #9ccbff;
      }

      .cls-11, .cls-14, .cls-7 {
        fill: #ff8f3d;
      }

      .cls-7 {
        stroke: #636363;
      }

      .cls-8 {
        fill: #636363;
      }

      .cls-9 {
        stroke: #f4e09c;
      }

      .cls-10 {
        fill: #f4e09c;
      }

      .cls-11, .cls-14 {
        stroke: #ba3231;
      }

      .cls-11 {
        filter: url(#filter-2);
      }

      .cls-12, .cls-15 {
        fill: #ba3231;
      }

      .cls-12 {
        filter: url(#filter-3);
      }

      .cls-13 {
        font-size: 12px;
        font-family: "Pluto Sans";
        font-weight: 700;
      }

      .cls-14 {
        filter: url(#filter-4);
      }

      .cls-15 {
        filter: url(#filter-5);
      }

      .cls-16 {
        font-size: 18px;
      }
    </style>
    <filter id="filter" x="288" y="1240" width="56" height="283" filterUnits="userSpaceOnUse">
      <feOffset result="offset" dy="3" in="SourceAlpha"/>
      <feGaussianBlur result="blur" stdDeviation="2"/>
      <feFlood result="flood" flood-opacity="0.1"/>
      <feComposite result="composite" operator="in" in2="blur"/>
      <feBlend result="blend" in="SourceGraphic"/>
    </filter>
    <filter id="filter-2" x="214.5" y="159" width="29" height="29" filterUnits="userSpaceOnUse">
      <feGaussianBlur result="blur" stdDeviation="2.333" in="SourceAlpha"/>
      <feComposite result="composite"/>
      <feComposite result="composite-2"/>
      <feComposite result="composite-3"/>
      <feFlood result="flood" flood-color="#fff" flood-opacity="0.15"/>
      <feComposite result="composite-4" operator="in" in2="composite-3"/>
      <feBlend result="blend" mode="screen" in2="SourceGraphic"/>
      <feBlend result="blend-2" in="SourceGraphic"/>
    </filter>
    <filter id="filter-3" x="218.5" y="163" width="21" height="21" filterUnits="userSpaceOnUse">
      <feGaussianBlur result="blur" stdDeviation="2.333" in="SourceAlpha"/>
      <feComposite result="composite"/>
      <feComposite result="composite-2"/>
      <feComposite result="composite-3"/>
      <feFlood result="flood" flood-color="#fff" flood-opacity="0.35"/>
      <feComposite result="composite-4" operator="in" in2="composite-3"/>
      <feBlend result="blend" mode="screen" in2="SourceGraphic"/>
      <feBlend result="blend-2" in="SourceGraphic"/>
    </filter>
    <filter id="filter-4" x="0.5" y="49" width="29" height="29" filterUnits="userSpaceOnUse">
      <feGaussianBlur result="blur" stdDeviation="2.333" in="SourceAlpha"/>
      <feComposite result="composite"/>
      <feComposite result="composite-2"/>
      <feComposite result="composite-3"/>
      <feFlood result="flood" flood-color="#fff" flood-opacity="0.15"/>
      <feComposite result="composite-4" operator="in" in2="composite-3"/>
      <feBlend result="blend" mode="screen" in2="SourceGraphic"/>
      <feBlend result="blend-2" in="SourceGraphic"/>
    </filter>
    <filter id="filter-5" x="4.5" y="53" width="21" height="21" filterUnits="userSpaceOnUse">
      <feGaussianBlur result="blur" stdDeviation="2.333" in="SourceAlpha"/>
      <feComposite result="composite"/>
      <feComposite result="composite-2"/>
      <feComposite result="composite-3"/>
      <feFlood result="flood" flood-color="#fff" flood-opacity="0.35"/>
      <feComposite result="composite-4" operator="in" in2="composite-3"/>
      <feBlend result="blend" mode="screen" in2="SourceGraphic"/>
      <feBlend result="blend-2" in="SourceGraphic"/>
    </filter>
  </defs>
  <g id="Chart-2" data-name="Chart">
    <g id="bg">
      <path id="Selected" class="cls-1" d="M291,1240h49v275.96H291V1240Z" transform="translate(-87.5 -1087)"/>
      <path id="lines" class="cls-2" d="M96,1473v-1.2H484.989v1.2H96Zm0-48.2v-1.2H484.989v1.2H96Zm0-48.2v-1.2H484.989v1.2H96Zm0-48.2v-1.2H484.989v1.2H96Zm0-48.2V1279H484.989v1.2H96Z" transform="translate(-87.5 -1087)"/>
      <path id="lines-2" data-name="lines" class="cls-2" d="M291,1241H292.2v274.99H291V1241Zm48.2,0h1.2v274.99h-1.2V1241Zm48.2,0h1.2v274.99h-1.2V1241Zm48.2,0h1.2v274.99h-1.2V1241Zm48.2,0H485v274.99H483.8V1241Z" transform="translate(-87.5 -1087)"/>
      <g id="Categories">
        <text id="At_least_400_lm" data-name="At least 400 lm" class="cls-3" transform="translate(8.632 412.654) scale(1.207 1.207)">At least 400 lm</text>
        <text id="Type_II_Switchback" data-name="Type II Switchback" class="cls-3" transform="translate(8.632 365.594) scale(1.207 1.207)">Type II Switchback</text>
        <text id="Wide_Contacts" data-name="Wide Contacts" class="cls-3" transform="translate(8.632 317.332) scale(1.207 1.207)">Wide Contacts</text>
        <text id="_25_Set_Retail" data-name="&lt; $25/Set Retail" class="cls-3" transform="translate(8.632 269.069) scale(1.207 1.207)">&lt; $25/Set Retail</text>
        <text id="CK_Non_CK_Compatible:" data-name="CK/Non CK Compatible:" class="cls-3" transform="translate(8.632 220.807) scale(1.207 1.207)">CK/Non CK Compatible:</text>
      </g>
      <g id="CHECKS">
        <path id="check" class="cls-4" d="M471.368,1489.83l-10.954,10.96a0.714,0.714,0,0,1-1,0l-0.221-.23v0.01l-0.239-.25-1.033-1.03a0.031,0.031,0,0,1-.015-0.02l-4.738-4.77a0.709,0.709,0,0,1,0-1l1.493-1.49a0.7,0.7,0,0,1,1,0l4.261,4.29,8.957-8.96a0.712,0.712,0,0,1,1,0l1.494,1.5A0.7,0.7,0,0,1,471.368,1489.83Z" transform="translate(-87.5 -1087)"/>
        <path id="check-2" data-name="check" class="cls-4" d="M423.368,1489.83l-10.954,10.96a0.714,0.714,0,0,1-1,0l-0.221-.23v0.01l-0.239-.25-1.033-1.03a0.031,0.031,0,0,1-.015-0.02l-4.738-4.77a0.709,0.709,0,0,1,0-1l1.493-1.49a0.7,0.7,0,0,1,1,0l4.261,4.29,8.957-8.96a0.712,0.712,0,0,1,1,0l1.494,1.5A0.7,0.7,0,0,1,423.368,1489.83Z" transform="translate(-87.5 -1087)"/>
        <path id="check-3" data-name="check" class="cls-4" d="M373.368,1489.83l-10.954,10.96a0.714,0.714,0,0,1-1,0l-0.221-.23v0.01l-0.239-.25-1.033-1.03a0.031,0.031,0,0,1-.015-0.02l-4.738-4.77a0.709,0.709,0,0,1,0-1l1.493-1.49a0.7,0.7,0,0,1,1,0l4.261,4.29,8.957-8.96a0.712,0.712,0,0,1,1,0l1.494,1.5A0.7,0.7,0,0,1,373.368,1489.83Z" transform="translate(-87.5 -1087)"/>
        <path id="check-4" data-name="check" class="cls-4" d="M325.368,1489.83l-10.954,10.96a0.714,0.714,0,0,1-1,0l-0.221-.23v0.01l-0.239-.25-1.033-1.03a0.031,0.031,0,0,1-.015-0.02l-4.738-4.77a0.709,0.709,0,0,1,0-1l1.493-1.49a0.7,0.7,0,0,1,1,0l4.261,4.29,8.957-8.96a0.712,0.712,0,0,1,1,0l1.494,1.5A0.7,0.7,0,0,1,325.368,1489.83Z" transform="translate(-87.5 -1087)"/>
        <path id="check-5" data-name="check" class="cls-4" d="M471.368,1443.83l-10.954,10.96a0.714,0.714,0,0,1-1,0l-0.221-.23v0.01l-0.239-.25-1.033-1.03a0.031,0.031,0,0,1-.015-0.02l-4.738-4.77a0.709,0.709,0,0,1,0-1l1.493-1.49a0.7,0.7,0,0,1,1,0l4.261,4.29,8.957-8.96a0.712,0.712,0,0,1,1,0l1.494,1.5A0.7,0.7,0,0,1,471.368,1443.83Z" transform="translate(-87.5 -1087)"/>
        <path id="check-6" data-name="check" class="cls-4" d="M423.368,1443.83l-10.954,10.96a0.714,0.714,0,0,1-1,0l-0.221-.23v0.01l-0.239-.25-1.033-1.03a0.031,0.031,0,0,1-.015-0.02l-4.738-4.77a0.709,0.709,0,0,1,0-1l1.493-1.49a0.7,0.7,0,0,1,1,0l4.261,4.29,8.957-8.96a0.712,0.712,0,0,1,1,0l1.494,1.5A0.7,0.7,0,0,1,423.368,1443.83Z" transform="translate(-87.5 -1087)"/>
        <path id="check-7" data-name="check" class="cls-4" d="M373.368,1443.83l-10.954,10.96a0.714,0.714,0,0,1-1,0l-0.221-.23v0.01l-0.239-.25-1.033-1.03a0.031,0.031,0,0,1-.015-0.02l-4.738-4.77a0.709,0.709,0,0,1,0-1l1.493-1.49a0.7,0.7,0,0,1,1,0l4.261,4.29,8.957-8.96a0.712,0.712,0,0,1,1,0l1.494,1.5A0.7,0.7,0,0,1,373.368,1443.83Z" transform="translate(-87.5 -1087)"/>
        <path id="check-8" data-name="check" class="cls-4" d="M325.368,1443.83l-10.954,10.96a0.714,0.714,0,0,1-1,0l-0.221-.23v0.01l-0.239-.25-1.033-1.03a0.031,0.031,0,0,1-.015-0.02l-4.738-4.77a0.709,0.709,0,0,1,0-1l1.493-1.49a0.7,0.7,0,0,1,1,0l4.261,4.29,8.957-8.96a0.712,0.712,0,0,1,1,0l1.494,1.5A0.7,0.7,0,0,1,325.368,1443.83Z" transform="translate(-87.5 -1087)"/>
        <path id="check-9" data-name="check" class="cls-4" d="M373.368,1395.83l-10.954,10.96a0.714,0.714,0,0,1-1,0l-0.221-.23v0.01l-0.239-.25-1.033-1.03a0.031,0.031,0,0,1-.015-0.02l-4.738-4.77a0.709,0.709,0,0,1,0-1l1.493-1.49a0.7,0.7,0,0,1,1,0l4.261,4.29,8.957-8.96a0.712,0.712,0,0,1,1,0l1.494,1.5A0.7,0.7,0,0,1,373.368,1395.83Z" transform="translate(-87.5 -1087)"/>
        <path id="check-10" data-name="check" class="cls-4" d="M325.368,1395.83l-10.954,10.96a0.714,0.714,0,0,1-1,0l-0.221-.23v0.01l-0.239-.25-1.033-1.03a0.031,0.031,0,0,1-.015-0.02l-4.738-4.77a0.709,0.709,0,0,1,0-1l1.493-1.49a0.7,0.7,0,0,1,1,0l4.261,4.29,8.957-8.96a0.712,0.712,0,0,1,1,0l1.494,1.5A0.7,0.7,0,0,1,325.368,1395.83Z" transform="translate(-87.5 -1087)"/>
        <path id="check-11" data-name="check" class="cls-4" d="M325.368,1347.83l-10.954,10.96a0.714,0.714,0,0,1-1,0l-0.221-.23v0.01l-0.239-.25-1.033-1.03a0.031,0.031,0,0,1-.015-0.02l-4.738-4.77a0.709,0.709,0,0,1,0-1l1.493-1.49a0.7,0.7,0,0,1,1,0l4.261,4.29,8.957-8.96a0.712,0.712,0,0,1,1,0l1.494,1.5A0.7,0.7,0,0,1,325.368,1347.83Z" transform="translate(-87.5 -1087)"/>
        <path id="check-12" data-name="check" class="cls-4" d="M471.368,1299.83l-10.954,10.96a0.714,0.714,0,0,1-1,0l-0.221-.23v0.01l-0.239-.25-1.033-1.03a0.031,0.031,0,0,1-.015-0.02l-4.738-4.77a0.709,0.709,0,0,1,0-1l1.493-1.49a0.7,0.7,0,0,1,1,0l4.261,4.29,8.957-8.96a0.712,0.712,0,0,1,1,0l1.494,1.5A0.7,0.7,0,0,1,471.368,1299.83Z" transform="translate(-87.5 -1087)"/>
        <path id="check-13" data-name="check" class="cls-4" d="M423.368,1299.83l-10.954,10.96a0.714,0.714,0,0,1-1,0l-0.221-.23v0.01l-0.239-.25-1.033-1.03a0.031,0.031,0,0,1-.015-0.02l-4.738-4.77a0.709,0.709,0,0,1,0-1l1.493-1.49a0.7,0.7,0,0,1,1,0l4.261,4.29,8.957-8.96a0.712,0.712,0,0,1,1,0l1.494,1.5A0.7,0.7,0,0,1,423.368,1299.83Z" transform="translate(-87.5 -1087)"/>
        <path id="check-14" data-name="check" class="cls-4" d="M373.368,1299.83l-10.954,10.96a0.714,0.714,0,0,1-1,0l-0.221-.23v0.01l-0.239-.25-1.033-1.03a0.031,0.031,0,0,1-.015-0.02l-4.738-4.77a0.709,0.709,0,0,1,0-1l1.493-1.49a0.7,0.7,0,0,1,1,0l4.261,4.29,8.957-8.96a0.712,0.712,0,0,1,1,0l1.494,1.5A0.7,0.7,0,0,1,373.368,1299.83Z" transform="translate(-87.5 -1087)"/>
        <path id="check-15" data-name="check" class="cls-4" d="M325.368,1299.83l-10.954,10.96a0.714,0.714,0,0,1-1,0l-0.221-.23v0.01l-0.239-.25-1.033-1.03a0.031,0.031,0,0,1-.015-0.02l-4.738-4.77a0.709,0.709,0,0,1,0-1l1.493-1.49a0.7,0.7,0,0,1,1,0l4.261,4.29,8.957-8.96a0.712,0.712,0,0,1,1,0l1.494,1.5A0.7,0.7,0,0,1,325.368,1299.83Z" transform="translate(-87.5 -1087)"/>
      </g>
      <g id="VLED">
        <g id="Checkbox">
          <circle class="cls-5" cx="373.5" cy="173" r="8"/>
          <circle id="Ellipse_3_copy" data-name="Ellipse 3 copy" class="cls-6" cx="373.5" cy="173" r="4"/>
        </g>
      </g>
      <g id="DIODE">
        <g id="Checkbox-2" data-name="Checkbox">
          <circle id="Ellipse_3_copy_2" data-name="Ellipse 3 copy 2" class="cls-7" cx="324.5" cy="173" r="8"/>
          <circle id="Ellipse_3_copy_2-2" data-name="Ellipse 3 copy 2" class="cls-8" cx="324.5" cy="173" r="4"/>
        </g>
      </g>
      <g id="MORIMOTO">
        <g id="Checkbox-3" data-name="Checkbox">
          <circle class="cls-9" cx="277.5" cy="173" r="8"/>
          <circle id="Ellipse_3_copy-2" data-name="Ellipse 3 copy" class="cls-10" cx="277.5" cy="173" r="4"/>
        </g>
      </g>
      <g id="ACME">
        <g id="Checkbox-4" data-name="Checkbox">
          <g style="fill: #ff8f3d; filter: url(#filter-2)">
            <circle id="Ellipse_3_copy_2-3" data-name="Ellipse 3 copy 2" class="cls-11" cx="228.5" cy="173" r="8" style="stroke: inherit; filter: none; fill: inherit"/>
          </g>
          <use xlink:href="#Ellipse_3_copy_2-3" style="stroke: #ba3231; filter: none; fill: none"/>
          <circle id="Ellipse_3_copy_2-4" data-name="Ellipse 3 copy 2" class="cls-12" cx="228.5" cy="173" r="4"/>
        </g>
      </g>
    </g>
  </g>
  <g id="info">
    <g id="VLED-2" data-name="VLED">
      <path id="Separation" class="cls-2" d="M300,1212v-1H485v1H300Z" transform="translate(-87.5 -1087)"/>
      <text id="VLED_HV" data-name="VLED HV" class="cls-13" x="235.918" y="112.835">VLED HV</text>
      <g id="Checkbox-5" data-name="Checkbox">
        <circle class="cls-5" cx="218.5" cy="109" r="8"/>
        <circle id="Ellipse_3_copy-3" data-name="Ellipse 3 copy" class="cls-6" cx="218.5" cy="109" r="4"/>
      </g>
    </g>
    <g id="DIODE-2" data-name="DIODE">
      <path id="Separation-2" data-name="Separation" class="cls-2" d="M300,1166v-1H485v1H300Z" transform="translate(-87.5 -1087)"/>
      <text id="Diode_Dynamics_HP2" data-name="Diode Dynamics HP2" class="cls-13" x="235.918" y="66.834">Diode Dynamics HP2</text>
      <g id="Checkbox-6" data-name="Checkbox">
        <circle id="Ellipse_3_copy_2-5" data-name="Ellipse 3 copy 2" class="cls-7" cx="218.5" cy="63" r="8"/>
        <circle id="Ellipse_3_copy_2-6" data-name="Ellipse 3 copy 2" class="cls-8" cx="218.5" cy="63" r="4"/>
      </g>
    </g>
    <g id="MORIMOTO-2" data-name="MORIMOTO">
      <path id="Separation-3" data-name="Separation" class="cls-2" d="M96,1212v-1H280v1H96Z" transform="translate(-87.5 -1087)"/>
      <text id="Morimoto_X-VF" data-name="Morimoto X-VF" class="cls-13" x="31.918" y="112.835">Morimoto X-VF</text>
      <g id="Checkbox-7" data-name="Checkbox">
        <circle class="cls-9" cx="14.5" cy="109" r="8"/>
        <circle id="Ellipse_3_copy-4" data-name="Ellipse 3 copy" class="cls-10" cx="14.5" cy="109" r="4"/>
      </g>
    </g>
    <g id="ACME-2" data-name="ACME">
      <path id="Separation-4" data-name="Separation" class="cls-2" d="M96,1166v-1H280v1H96Z" transform="translate(-87.5 -1087)"/>
      <text id="AcmE_Black_Series" data-name="AcmE Black Series" class="cls-13" x="31.918" y="66.834">AcmE Black Series</text>
      <g id="Checkbox-8" data-name="Checkbox">
        <g style="fill: #ff8f3d; filter: url(#filter-4)">
          <circle id="Ellipse_3_copy_2-7" data-name="Ellipse 3 copy 2" class="cls-14" cx="14.5" cy="63" r="8" style="stroke: inherit; filter: none; fill: inherit"/>
        </g>
        <use xlink:href="#Ellipse_3_copy_2-7" style="stroke: #ba3231; filter: none; fill: none"/>
        <circle id="Ellipse_3_copy_2-8" data-name="Ellipse 3 copy 2" class="cls-15" cx="14.5" cy="63" r="4"/>
      </g>
    </g>
  </g>
  <g id="Title">
    <text id="Feature_Comparison" data-name="Feature Comparison" class="cls-16" x="4.621" y="13.626">Feature Comparison</text>
  </g>
</svg>
