<?xml version="1.0" encoding="utf-8"?>
<!-- Generator: Adobe Illustrator 20.1.0, SVG Export Plug-In . SVG Version: 6.00 Build 0)  -->
<svg version="1.1" id="ACME_A" xmlns="http://www.w3.org/2000/svg" xmlns:xlink="http://www.w3.org/1999/xlink" x="0px" y="0px"
	 viewBox="0 0 30 88" style="enable-background:new 0 0 30 88;" xml:space="preserve">
<style type="text/css">
	.st0{fill:#BBA37B;}
</style>
<g>
	<path class="st0" d="M12.13,29.65L0,58.15h6.35l2.59-6.35H20.9l2.59,6.35H30l-12.13-28.5H12.13z M11.16,46.34l3.76-9.18l3.76,9.18
		H11.16z"/>
	<polygon class="st0" points="13.4,62.74 0,62.74 0,65.26 14.63,65.26 18.5,73.15 11.33,73.15 25.89,87.73 22.92,77.32 27.97,77.32 
		23.3,65.26 30,65.26 30,62.74 22.32,62.74 	"/>
	<polygon class="st0" points="15.2,22.74 11.34,14.85 18.51,14.85 3.95,0.27 6.91,10.68 1.86,10.68 6.54,22.74 0,22.74 0,25.26 
		7.52,25.26 16.44,25.26 30,25.26 30,22.74 	"/>
</g>
</svg>
