<?xml version="1.0" encoding="utf-8"?>
<!-- Generator: Adobe Illustrator 20.1.0, SVG Export Plug-In . SVG Version: 6.00 Build 0)  -->
<svg version="1.1" id="at_the_right_price" xmlns="http://www.w3.org/2000/svg" xmlns:xlink="http://www.w3.org/1999/xlink" x="0px"
	 y="0px" viewBox="0 0 300 40.99" style="enable-background:new 0 0 300 40.99;" xml:space="preserve">
<style type="text/css">
	.st0{fill:#FFFFFF;}
</style>
<g>
	<path class="st0" d="M22.77,25.92c-1.27,1.13-2.54,2.26-3.8,3.38c-1.24,1.03-2.48,1.55-3.71,1.55c-1.34,0-2.28-0.68-2.81-2.05
		c-0.1-0.27-0.17-0.82-0.21-1.66c-0.06-0.96-0.13-1.65-0.21-2.05c-0.34,0.42-1.34,1.68-3.02,3.77c-0.31,0-0.58-0.13-0.82-0.38
		c0.29,0,0.44-0.11,0.44-0.34c-0.17-0.06-0.49-0.19-0.96-0.4L7.53,28.5c0.14,0.15,0.44,0.37,0.9,0.65
		c-0.11,0.08-0.24,0.06-0.38-0.06C7.88,29.36,7.53,29.72,7,30.15c0.27-0.49,0.23-0.91-0.1-1.26l0.46,0.42
		c-0.01-0.28-0.03-0.55-0.04-0.82c-0.13-0.18-0.26-0.36-0.4-0.54c-0.21,0-0.31,0.14-0.31,0.42c-0.08,0-0.17-0.08-0.25-0.23
		c-0.1-0.21-0.17-0.34-0.23-0.4C6.09,27.87,6,28.08,5.83,28.39c-0.17,0.31-0.25,0.52-0.25,0.65c0,0.15,0.1,0.25,0.31,0.29
		c-0.21,0.15-0.31,0.38-0.31,0.67c0.01,0.31,0.15,0.57,0.4,0.78c-1.17-0.1-1.99-0.08-2.45,0.06l-0.61-0.46
		c-0.45-0.27-0.67-0.54-0.67-0.82c0-0.17,0.07-0.35,0.21-0.54c-0.21,0-0.58,0.08-1.11,0.23c0.07-0.17,0.21-0.41,0.42-0.73
		C1.43,28.13,1,27.93,0.48,27.93c0-0.32-0.08-0.82-0.24-1.49C0.08,25.77,0,25.36,0,25.2c0-0.98,0.3-1.66,0.9-2.05
		c0-0.18-0.08-0.27-0.23-0.27c-0.1,0-0.13-0.11-0.1-0.33c0.03-0.24,0.14-0.41,0.34-0.5c0-0.31-0.13-0.33-0.4-0.06
		c0.15-0.52,0.31-1.04,0.48-1.57c0.28-0.56,0.76-0.96,1.45-1.2c-0.29-0.31-0.44-0.53-0.44-0.67c0.08-0.25,0.34-0.64,0.75-1.15
		c0.56-0.66,0.87-1.03,0.94-1.13c0,0.34,0.08,0.56,0.23,0.67c-0.14-1.08,1.41-2.4,4.66-3.98c0,0.13,0.08,0.36,0.25,0.71
		C9,14,9.08,14.27,9.08,14.47c0,0.38-0.44,0.99-1.31,1.84c-0.87,0.85-1.33,1.58-1.37,2.19c0.36,0,0.55-0.16,0.55-0.48
		c-0.81,1.83-1.22,3.15-1.22,3.94c-0.03,0-0.2,0.16-0.52,0.48c-0.22-0.22-0.34-0.52-0.34-0.88c0-0.25,0.15-0.59,0.44-1.01
		c0.29-0.42,0.59-0.72,0.9-0.9c-0.08-0.07-0.18-0.16-0.29-0.26c-0.11-0.1-0.2-0.19-0.27-0.26c-0.07,0.07-0.2,0.12-0.39,0.16
		c-0.19,0.04-0.32,0.09-0.39,0.16l0.44,0.44c-0.14,0.21-0.27,0.42-0.4,0.63c-0.22,0.39-0.34,0.78-0.34,1.17
		c0,0.1,0.01,0.2,0.02,0.29c-0.29-0.28-0.57-0.42-0.84-0.42c-0.15,0-0.36,0.06-0.63,0.17c-0.17,0.07-0.24,0.05-0.23-0.05
		c0.01-0.11-0.04-0.22-0.17-0.35c-0.29-0.04-0.5,0.22-0.63,0.8c-0.18,0-0.51,0.07-0.99,0.21c0.17,0.08,0.34,0.27,0.5,0.54
		c0.32,0.57,0.49,0.87,0.5,0.88c0.15-0.15,0.11-0.35-0.13-0.59c0.55,0,0.82,0.06,0.82,0.17l0.29-0.36
		c-0.06-0.04-0.15-0.18-0.27-0.42c-0.11-0.15-0.21-0.23-0.29-0.23c0.57,0,0.95-0.19,1.13-0.57c0,0.46,0.07,0.76,0.21,0.9
		c0.13-0.14,0.19-0.29,0.19-0.46c-0.39,0.8-0.59,1.61-0.59,2.43c-0.24-0.07-0.55-0.22-0.94-0.44L2.2,24.53
		c0.17,0.08,0.3,0.27,0.4,0.55c0.14,0.42,0.27,0.72,0.4,0.9c0.32-0.32,0.36-0.6,0.13-0.84c0.29-0.01,0.7,0.12,1.22,0.4
		C4.49,25.47,4.65,25.29,4.8,25c0.15-0.29,0.3-0.48,0.44-0.57c0.04,0.45,0.09,0.89,0.15,1.34c0.06,0.52,0.29,0.96,0.69,1.32
		C6.26,26.91,6.23,26.7,6,26.46c0.49,0.42,1,0.63,1.53,0.63c0.77,0,1.57-0.52,2.41-1.55c1.22-1.5,1.83-2.24,1.85-2.24
		c0.11-0.1,0.07-0.22-0.13-0.36c0.17-0.49,0.43-1.22,0.8-2.2c0.07-0.2,0.29-0.64,0.65-1.32c0.27-0.5,0.4-0.86,0.4-1.07
		c0-3.03-0.81-4.55-2.43-4.55c-0.2,0-0.41,0.08-0.65,0.25c-0.35,0.25-0.55,0.39-0.59,0.42c-0.01-0.01-0.27-0.51-0.75-1.49
		c1.47-0.49,2.24-0.73,2.33-0.73c0.88,0,1.63,0.33,2.24,0.99c0.43,0.49,0.87,0.97,1.3,1.45c0.45-0.21,1.26-0.67,2.43-1.38
		c0.88-0.54,1.4-0.81,1.57-0.8h1.38c-0.67,1.86-1.37,4.08-2.1,6.65c-0.8,2.89-1.19,4.8-1.19,5.72c0,1.48,0.26,2.22,0.78,2.22
		c0.56,0,1.17-0.22,1.82-0.65c0,0.46,0.08,0.75,0.25,0.86c0.36-0.57,0.72-1.14,1.07-1.7c0.63-0.88,1.23-1.41,1.8-1.59V25.92z
		 M1.17,21.51v-0.59H0.8v0.59H1.17z M1.4,26.53L1.09,26.4L0.8,26.97l0.31,0.15L1.4,26.53z M1.61,24.18v-0.61H1.24v0.61H1.61z
		 M2.68,25.52l-1.32-0.5v0.34l1.17,0.48L2.68,25.52z M2.05,28.16l-0.27-0.65l-0.31,0.13l0.27,0.52H2.05z M2.5,26.63l-0.21-0.29
		l-0.78,0.52l0.17,0.29L2.5,26.63z M2.45,22.65l-0.13,0.31l-0.57-0.27l0.1-0.34L2.45,22.65z M2.58,20.01l-0.52,0.44
		c-0.08,0-0.1,0.06-0.06,0.19c0.07,0.2,0.1,0.31,0.1,0.36c0-0.07,0.08-0.23,0.24-0.48C2.5,20.26,2.58,20.09,2.58,20.01z M3.96,28.02
		c-0.39,0-0.64,0.06-0.75,0.17l-0.34-0.31c0.32-0.32,0.52-0.44,0.61-0.36c0-0.54-0.09-0.91-0.27-1.09
		c-0.18,0.17-0.43,0.41-0.75,0.73v1.66c0.56,0.04,0.83,0.06,0.82,0.06c0-0.15,0.1-0.3,0.3-0.44S3.91,28.15,3.96,28.02z M4.4,18.94
		c-0.08,0-0.23-0.03-0.43-0.09c-0.2-0.06-0.35-0.09-0.43-0.09c0.15,0.08,0.38,0.25,0.67,0.48l-0.44,0.5
		C4.19,19.54,4.4,19.27,4.4,18.94z M5.51,22.71c-0.14,0.41-0.38,0.9-0.73,1.49l-0.46-0.44c-0.15,0.08-0.23,0.2-0.23,0.33
		c0-0.17,0.07-0.46,0.2-0.89c0.13-0.43,0.2-0.75,0.2-0.97C4.81,22.55,5.15,22.71,5.51,22.71z M4.72,26.99l-0.27-0.52H4.13l0.27,0.65
		L4.72,26.99z M4.72,29.27v-1.05H4.34v1.05H4.72z M5.33,30.07L5.2,30.38l-0.8-0.4l0.13-0.31L5.33,30.07z M4.95,18.41v-0.82H4.57
		v0.82H4.95z M4.95,19.29V18.7H4.57v0.59H4.95z M5.54,26.76c-0.17-0.17-0.33-0.4-0.49-0.69c-0.16-0.29-0.27-0.47-0.32-0.52
		c0,0.54,0.13,1.02,0.38,1.43c-0.25,0.25-0.38,0.51-0.38,0.78C4.91,27.49,5.19,27.16,5.54,26.76z M6,27.53l-0.13-0.29l-0.52,0.25
		v0.33L6,27.53z M11.81,25.06v-0.82h-0.38v0.82H11.81z M12.41,12.94l-0.13-0.31l-0.52,0.27v0.31L12.41,12.94z M14.68,23.51v-0.59
		H14.3v0.59H14.68z M15.45,17.53c-0.17-0.32-0.35-0.71-0.55-1.17v0.96C15.02,17.32,15.2,17.39,15.45,17.53z M16.4,29.55l-0.65,0.27
		v-0.34l0.52-0.25L16.4,29.55z"/>
	<path class="st0" d="M35.31,23.36c0.03,0.14,0.04,0.29,0.04,0.46c0,1.43-1.1,2.93-3.29,4.51c-2.07,1.48-3.84,2.22-5.3,2.22
		c-0.83,0-1.27-0.24-1.32-0.71c-0.13,0.17-0.19,0.32-0.19,0.46c3.76-7.66,5.77-11.74,6.02-12.25c-0.04,0-0.08,0-0.13,0
		c-0.08,0.14-2.16,4.06-6.23,11.76c-0.17,0-0.25-0.03-0.25-0.08c0-0.06,0.14-0.22,0.42-0.48c-0.2-0.1-0.45-0.12-0.75-0.06
		c-0.43,0.08-0.69,0.13-0.75,0.13c0-0.28-0.13-0.67-0.4-1.17c-0.36-0.66-0.57-1.05-0.61-1.17c0.35,0.33,0.69,0.5,1.01,0.5
		c0.01-0.24,0.08-0.44,0.21-0.6c0.13-0.16,0.19-0.25,0.19-0.28c0-0.1-0.14-0.24-0.42-0.42c0-0.33,0.42-0.7,1.26-1.09
		c-0.34,0.31-0.24,0.46,0.29,0.46v-0.59c-0.11-0.11-0.42-0.17-0.92-0.17c-0.24,0-0.36-0.04-0.37-0.13
		c-0.01-0.08-0.04-0.13-0.09-0.13c-0.29,0.28-0.44,0.41-0.44,0.38c0-0.7,0.01-0.87,0.04-0.52c-0.01-0.21-0.15-0.31-0.42-0.31
		c-0.24,0-0.4,0.05-0.48,0.15c-0.04,0.06-0.1,0.05-0.17-0.02c0.25-0.53,0.38-1.17,0.38-1.93c0,0.42,0.08,0.7,0.23,0.84
		c0.24-0.5,0.64-0.89,1.22-1.15c0-0.22-0.34-0.33-1.01-0.33v-1.61c0.13,0.03,0.25,0.04,0.38,0.04c0.49,0,1.01-0.25,1.57-0.75
		c0.74-0.66,1.19-1.03,1.36-1.11c0.01-0.01,0.03-0.02,0.04-0.02c0.01-0.03-0.01-0.05-0.06-0.07c-0.06-0.02-0.18-0.03-0.38-0.03
		c-0.36,0-0.97,0.4-1.82,1.2c-0.13-0.25-0.19-0.55-0.19-0.9c0-0.31,0.06-0.73,0.18-1.26c0.12-0.53,0.18-0.87,0.18-1.01
		c-0.34-0.18-0.85-0.25-1.53-0.21c0-0.11,0.05-0.4,0.16-0.87c0.1-0.47,0.16-0.85,0.16-1.14c0-0.43-0.1-0.78-0.29-1.05h2.58
		c0.52-1.52,1.31-3.74,2.37-6.65c3.15-0.7,4.71-1.05,4.7-1.05h1.11c-0.39,1.26-0.78,2.52-1.17,3.8c-0.53,1.65-1.08,2.82-1.64,3.5
		l0.4,0.36c0.34-0.32,0.8-0.48,1.4-0.48c0.22,0,0.54,0.06,0.94,0.17c0.41,0.11,0.69,0.17,0.86,0.17c-0.52,0.17-1.29,0.62-2.33,1.36
		c0.18,0.25,0.45,0.31,0.82,0.17c0.03,0.01,0.09,0.11,0.2,0.28c0.1,0.17,0.19,0.26,0.24,0.26l0.73-0.46c0,0.07-0.04,0.26-0.12,0.57
		s-0.12,0.5-0.12,0.59c-0.91-0.03-1.95,0.01-3.12,0.1c-0.32,0.42-0.9,1.01-1.74,1.76c-0.13,0.08-0.19,0.15-0.19,0.21
		c0,0.07,0.11,0.1,0.34,0.1c0.24,0,0.39-0.03,0.45-0.08c0.06-0.06,0.12-0.08,0.18-0.08c-0.25,0.34-0.54,0.83-0.86,1.49
		c0.04,0.13,0.06,0.27,0.06,0.44c0,0.36-0.17,1.11-0.5,2.24c-0.34,1.13-0.5,1.96-0.5,2.5c0,0.62,0.16,1.18,0.48,1.7
		c0.39,0.63,0.92,0.94,1.59,0.94c0.81,0,1.77-0.43,2.87-1.3C33.68,24.73,34.5,24.04,35.31,23.36z M23.49,23.93v-0.42h-0.69v0.42
		H23.49z M24.43,20.34c0,0.08-0.09,0.19-0.28,0.3c-0.19,0.12-0.28,0.21-0.28,0.28c0.35-0.32,0.52-0.24,0.52,0.25
		c0.01-0.01,0.02-0.03,0.03-0.04C24.43,21.12,24.43,20.86,24.43,20.34z M24.66,25.6l-0.38-0.1l-0.34,0.61l0.38,0.15L24.66,25.6z
		 M25.33,28.56c0-0.08-0.05-0.19-0.15-0.31c-0.1-0.13-0.15-0.22-0.15-0.29c-0.46,0-0.69,0.22-0.69,0.65c0.04,0,0.24,0.02,0.59,0.06
		C25.1,28.69,25.23,28.66,25.33,28.56z M25.52,19.5c-0.17,0-0.48,0.22-0.94,0.65c0.35,0,0.65,0.1,0.9,0.31
		C25.83,20.13,25.84,19.81,25.52,19.5z M26.65,19.25l-1.01-0.31v0.36l0.86,0.29L26.65,19.25z M27.72,19.48l-0.25-0.31l-1.03,0.82
		l0.23,0.34L27.72,19.48z M29.69,15.14c0-0.46-0.12-0.69-0.36-0.69c-0.1,0-0.25,0.12-0.44,0.36c-0.29,0.35-0.45,0.53-0.46,0.54
		c0.1,0,0.31-0.03,0.63-0.1C29.38,15.17,29.59,15.14,29.69,15.14z M32.63,12.71l-0.27-0.23l-0.88,0.82l0.23,0.25L32.63,12.71z"/>
	<path class="st0" d="M58.1,23.36c0.03,0.14,0.04,0.29,0.04,0.46c0,1.43-1.1,2.93-3.29,4.51c-2.07,1.48-3.84,2.22-5.3,2.22
		c-0.83,0-1.27-0.24-1.32-0.71c-0.13,0.17-0.19,0.32-0.19,0.46c3.76-7.66,5.77-11.74,6.02-12.25c-0.04,0-0.08,0-0.13,0
		c-0.08,0.14-2.16,4.06-6.23,11.76c-0.17,0-0.25-0.03-0.25-0.08c0-0.06,0.14-0.22,0.42-0.48c-0.2-0.1-0.45-0.12-0.75-0.06
		c-0.43,0.08-0.69,0.13-0.75,0.13c0-0.28-0.13-0.67-0.4-1.17c-0.36-0.66-0.57-1.05-0.61-1.17c0.35,0.33,0.69,0.5,1.01,0.5
		c0.01-0.24,0.08-0.44,0.21-0.6c0.13-0.16,0.19-0.25,0.19-0.28c0-0.1-0.14-0.24-0.42-0.42c0-0.33,0.42-0.7,1.26-1.09
		c-0.34,0.31-0.24,0.46,0.29,0.46v-0.59c-0.11-0.11-0.42-0.17-0.92-0.17c-0.24,0-0.36-0.04-0.37-0.13
		c-0.01-0.08-0.04-0.13-0.09-0.13c-0.29,0.28-0.44,0.41-0.44,0.38c0-0.7,0.01-0.87,0.04-0.52c-0.01-0.21-0.15-0.31-0.42-0.31
		c-0.24,0-0.4,0.05-0.48,0.15c-0.04,0.06-0.1,0.05-0.17-0.02c0.25-0.53,0.38-1.17,0.38-1.93c0,0.42,0.08,0.7,0.23,0.84
		c0.24-0.5,0.64-0.89,1.22-1.15c0-0.22-0.34-0.33-1.01-0.33v-1.61c0.13,0.03,0.25,0.04,0.38,0.04c0.49,0,1.01-0.25,1.57-0.75
		c0.74-0.66,1.19-1.03,1.36-1.11c0.01-0.01,0.03-0.02,0.04-0.02c0.01-0.03-0.01-0.05-0.06-0.07c-0.06-0.02-0.18-0.03-0.38-0.03
		c-0.36,0-0.97,0.4-1.82,1.2c-0.13-0.25-0.19-0.55-0.19-0.9c0-0.31,0.06-0.73,0.18-1.26c0.12-0.53,0.18-0.87,0.18-1.01
		c-0.34-0.18-0.85-0.25-1.53-0.21c0-0.11,0.05-0.4,0.16-0.87c0.1-0.47,0.16-0.85,0.16-1.14c0-0.43-0.1-0.78-0.29-1.05h2.58
		c0.52-1.52,1.31-3.74,2.37-6.65c3.15-0.7,4.71-1.05,4.7-1.05h1.11c-0.39,1.26-0.78,2.52-1.17,3.8c-0.53,1.65-1.08,2.82-1.64,3.5
		l0.4,0.36c0.34-0.32,0.8-0.48,1.4-0.48c0.22,0,0.54,0.06,0.94,0.17c0.41,0.11,0.69,0.17,0.86,0.17c-0.52,0.17-1.29,0.62-2.33,1.36
		c0.18,0.25,0.45,0.31,0.82,0.17c0.03,0.01,0.09,0.11,0.2,0.28c0.1,0.17,0.19,0.26,0.24,0.26l0.73-0.46c0,0.07-0.04,0.26-0.12,0.57
		s-0.12,0.5-0.12,0.59c-0.91-0.03-1.95,0.01-3.12,0.1c-0.32,0.42-0.9,1.01-1.74,1.76c-0.13,0.08-0.19,0.15-0.19,0.21
		c0,0.07,0.11,0.1,0.34,0.1c0.24,0,0.39-0.03,0.45-0.08c0.06-0.06,0.12-0.08,0.18-0.08c-0.25,0.34-0.54,0.83-0.86,1.49
		c0.04,0.13,0.06,0.27,0.06,0.44c0,0.36-0.17,1.11-0.5,2.24s-0.5,1.96-0.5,2.5c0,0.62,0.16,1.18,0.48,1.7
		c0.39,0.63,0.92,0.94,1.59,0.94c0.81,0,1.77-0.43,2.87-1.3C56.48,24.73,57.29,24.04,58.1,23.36z M46.28,23.93v-0.42h-0.69v0.42
		H46.28z M47.22,20.34c0,0.08-0.09,0.19-0.28,0.3c-0.19,0.12-0.28,0.21-0.28,0.28c0.35-0.32,0.52-0.24,0.52,0.25
		c0.01-0.01,0.02-0.03,0.03-0.04C47.22,21.12,47.22,20.86,47.22,20.34z M47.45,25.6l-0.38-0.1l-0.34,0.61l0.38,0.15L47.45,25.6z
		 M48.12,28.56c0-0.08-0.05-0.19-0.15-0.31c-0.1-0.13-0.15-0.22-0.15-0.29c-0.46,0-0.69,0.22-0.69,0.65c0.04,0,0.24,0.02,0.59,0.06
		C47.89,28.69,48.03,28.66,48.12,28.56z M48.31,19.5c-0.17,0-0.48,0.22-0.94,0.65c0.35,0,0.65,0.1,0.9,0.31
		C48.62,20.13,48.63,19.81,48.31,19.5z M49.44,19.25l-1.01-0.31v0.36l0.86,0.29L49.44,19.25z M50.51,19.48l-0.25-0.31l-1.03,0.82
		l0.23,0.34L50.51,19.48z M52.48,15.14c0-0.46-0.12-0.69-0.36-0.69c-0.1,0-0.25,0.12-0.44,0.36c-0.29,0.35-0.45,0.53-0.46,0.54
		c0.1,0,0.31-0.03,0.63-0.1C52.18,15.17,52.39,15.14,52.48,15.14z M55.42,12.71l-0.27-0.23l-0.88,0.82l0.23,0.25L55.42,12.71z"/>
	<path class="st0" d="M78.51,25.48c0.03,0.08-0.24,0.4-0.82,0.94c-1.83,1.78-3.62,3.01-5.37,3.69c0.04-0.52-0.15-0.92-0.59-1.2
		c-0.24-0.14-0.36-0.42-0.36-0.84c0-0.27,0.07-0.77,0.22-1.52c0.15-0.75,0.23-1.33,0.24-1.75c-0.42,0.21-0.63,0.66-0.63,1.36
		c-0.24-0.63-0.36-1.27-0.36-1.93c0-0.67,0.15-1.23,0.46-1.68l-0.38-0.38c-0.15,0.15-0.23,0.36-0.23,0.61c0-0.91-0.22-2.08-0.65-3.5
		c-0.13,0.07-0.19,0.39-0.19,0.96c0,0.69,0.16,2.22,0.48,4.59c0.39,2.85,0.78,4.62,1.15,5.31c0.27,0,0.42-0.2,0.46-0.61v0.78
		c-0.45,0.2-1.27,0.29-2.45,0.29c-0.7,0-1.32-0.49-1.87-1.47c-0.45-0.84-0.67-1.59-0.67-2.26c0-0.49,0.29-1.65,0.88-3.48
		c0.59-1.83,0.88-2.75,0.88-2.77c0.14,0,0.36-0.08,0.65-0.23c-0.17-0.14-0.32-0.21-0.46-0.21c0.28-0.48,0.61-1.5,0.99-3.08h0.34
		c0.06-0.07,0.02-0.21-0.12-0.41c-0.13-0.2-0.2-0.38-0.2-0.54c0.11,0.07,0.3,0.23,0.57,0.48c0.07,0.04,0.18-0.01,0.34-0.15
		c-0.35-0.71-0.71-1.07-1.09-1.07c-0.06,0-0.87,0.48-2.43,1.45c-1.57,0.96-2.36,1.45-2.39,1.45c-0.24,0-0.36-0.01-0.38-0.02
		c-0.03-0.08-0.06-0.16-0.1-0.23c-0.08,0.1-0.1,0.26-0.06,0.48c0.04,0.24,0.06,0.38,0.04,0.42c-0.48,0-0.81,0.31-1.01,0.94
		c-0.39,1.24-0.64,2.8-0.73,4.68c-0.06,1.59-0.11,3.19-0.17,4.78c-1.87,0.6-3.42,1.01-4.66,1.22c0-0.5-0.05-1.32-0.15-2.44
		c-0.1-1.13-0.15-1.75-0.15-1.88c0-1.26,0.12-2.1,0.36-2.52c0.22-0.13,0.53-0.27,0.92-0.42c0.03-0.03,0.17-0.43,0.44-1.2
		c-0.08,0-0.15-0.04-0.19-0.13c-0.07-0.15-0.13-0.26-0.19-0.31c-0.17,0.15-0.34,0.43-0.51,0.84s-0.34,0.68-0.49,0.84
		c-0.08-0.67-0.06-1.56,0.06-2.68c0.13-1.3,0.34-2.14,0.63-2.52c-0.1-0.43-0.19-0.65-0.27-0.65c0.17-0.21,0.38-0.89,0.63-2.05
		c0.24-1.09,0.56-1.82,0.96-2.2c-0.01,0.22-0.12,0.47-0.3,0.73c-0.19,0.27-0.28,0.48-0.28,0.65c0,0.21,0.1,0.47,0.29,0.78
		c0.17-0.1,0.25-0.22,0.25-0.36c0,0.24-0.13,0.48-0.38,0.71c0.06,0.13,0.19,0.33,0.4,0.61c0.2-0.21,0.55-0.5,1.07-0.86
		c-0.08-0.08-0.11-0.22-0.07-0.42c0.03-0.2,0.02-0.34-0.05-0.42l-0.48,0.48c0.01-0.43,0.03-0.87,0.04-1.3
		c0.03-0.35,0.29-0.68,0.8-0.99c-0.1-0.1-0.13-0.15-0.1-0.15c-0.11,0.03-0.24,0.04-0.38,0.04c-0.49,0-0.61,0.12-0.36,0.36
		l-0.61-0.48c0.42-0.39,0.79-0.92,1.11-1.57c0,0.46-0.13,0.82-0.4,1.07c0.28,0.04,0.72,0.17,1.32,0.38c0.07-0.08,0.17-0.14,0.3-0.18
		c0.13-0.04,0.23-0.09,0.3-0.18c-0.2-0.15-0.75-0.8-1.68-1.93c0.18-0.24,0.27-0.43,0.27-0.57c0.06,0,0.23,0.04,0.51,0.12
		c0.29,0.08,0.52,0.12,0.7,0.12c0.03-0.13-0.06-0.25-0.27-0.39c-0.21-0.13-0.45-0.2-0.71-0.2c1.16-1.69,1.74-2.87,1.74-3.54
		c0.18,0,0.44,0.08,0.78,0.25l0.36-0.38C64,5.58,63.84,5.5,63.6,5.42c-0.24-0.08-0.4-0.16-0.48-0.24c0.13-0.13,0.41-0.57,0.86-1.34
		c0.38-0.67,0.75-1.11,1.13-1.32C66,2,67.29,1.44,68.97,0.84C70.5,0.28,71.45,0,71.8,0c0.45,0,0.81,0.42,1.09,1.26
		c0.24,0.66,0.36,1.29,0.36,1.89c0,1.02-0.32,2.27-0.96,3.75c-0.69,1.59-1.41,2.63-2.18,3.1c0.17,0.13,0.33,0.19,0.48,0.19
		c-0.52,0.78-1.2,1.8-2.03,3.06c-0.07-0.06-0.23-0.13-0.48-0.23c-0.2-0.08-0.29-0.17-0.29-0.25c-0.1,0.1-0.1,0.25,0,0.44
		c0.07,0.13,0.15,0.25,0.23,0.38c-0.21,0.11-0.31,0.2-0.31,0.27c0,0.63,0.07,1.01,0.2,1.13c0.13,0.13,0.51,0.19,1.14,0.19
		c0.17,0,0.26,0.03,0.27,0.08c0,0.03-0.02,0.07-0.05,0.13c-0.04,0.06-0.05,0.1-0.05,0.15c0.01,0.06,0.03,0.1,0.06,0.13l0.61-0.61
		l-0.4-0.36c-0.39,0.1-0.72,0.11-0.99,0.04c-0.34-0.1-0.48-0.15-0.42-0.15c0.03,0,0.17-0.06,0.43-0.19
		c0.26-0.13,0.51-0.19,0.77-0.19c0.25,0,0.64,0.36,1.17,1.09c0.42,0.6,0.83,1.2,1.24,1.8l0.36-0.36c-0.2-0.27-0.99-1.33-2.39-3.19
		c0.06,0,0.15-0.09,0.28-0.27c0.13-0.18,0.32-0.27,0.56-0.27c0.14,0,0.55-0.12,1.24-0.36c0.68-0.24,1.19-0.36,1.53-0.36
		c0.71,0,1.31,0.37,1.8,1.11c0.41,0.63,0.61,1.22,0.61,1.76l-0.25,0.36c0.2,0.38,0.17,1.01-0.08,1.9c-0.25,0.89-0.82,2.57-1.7,5.04
		c-0.74,2.08-1.11,3.23-1.11,3.44c0,0.88,0.36,1.32,1.09,1.32c0.42,0,1.3-0.56,2.64-1.68c0.75-0.64,1.51-1.28,2.26-1.91V25.48z
		 M59.97,17.26l-0.59-0.63c-0.06,0.06-0.08,0.12-0.08,0.19c0,0.1,0.05,0.28,0.16,0.54c0.1,0.27,0.16,0.47,0.16,0.61
		C59.61,17.73,59.73,17.5,59.97,17.26z M59.82,21.91v-0.65H59.4v0.65H59.82z M60.24,23.17l-0.71,0.29v-0.36l0.59-0.29L60.24,23.17z
		 M60.89,17.09c0-0.08-0.09-0.18-0.27-0.29c-0.18-0.11-0.27-0.2-0.27-0.27c0,0.14-0.2,0.22-0.61,0.25L60.89,17.09z M60.47,22.21
		l-0.13-0.36l-0.57,0.29v0.36L60.47,22.21z M61.84,13.74v-0.92c-0.13,0-0.34,0.12-0.65,0.36C61.54,13.17,61.75,13.36,61.84,13.74z
		 M62.93,12.54c-0.62,1.23-1.19,1.8-1.72,1.72l0.31,1.17C62,14.72,62.47,13.76,62.93,12.54z M64.48,8.91c0-0.13-0.22-0.41-0.65-0.84
		c0.15-0.14,0.23-0.32,0.23-0.55c-0.08,0-0.21,0.07-0.39,0.22c-0.18,0.15-0.3,0.22-0.39,0.22c-0.18-0.17-0.27-0.41-0.27-0.73
		c-0.11,0.41-0.31,0.96-0.59,1.66c0.07-0.06,0.14-0.08,0.21-0.08c0.1,0,0.22,0.36,0.38,1.07c0-0.08-0.1-0.2-0.31-0.33
		c-0.29-0.21-0.45-0.33-0.48-0.36c0.35,1.3,0.52,2.01,0.5,2.14c0.52-0.78,0.86-1.43,1.03-1.93c0.15,0.15,0.34,0.22,0.54,0.21
		c-0.35-0.67-0.46-1.05-0.34-1.15L64.48,8.91z M62.72,24.07H62.3v-0.88h0.42V24.07z M63.03,16.38v-0.82
		c-0.01,0.07-0.12,0.15-0.33,0.25c-0.2,0.1-0.3,0.19-0.3,0.27C62.56,16.24,62.77,16.33,63.03,16.38z M63.2,14.32l-0.36-0.1
		l-0.29,0.61l0.34,0.15L63.2,14.32z M63.43,14.2v-0.9h-0.42v0.9H63.43z M64.19,9.92l-0.29,1.13h-0.4l0.27-1.13H64.19z M71.55,4.47
		c0-0.21-0.05-0.56-0.14-1.05c-0.09-0.49-0.14-0.82-0.14-0.99h-1.09c-2.4,3.06-3.93,5.87-4.57,8.43c-0.04-0.04-0.1-0.06-0.17-0.06
		c-0.39,0-0.59,0.17-0.59,0.52c0.31-0.21,0.53-0.25,0.67-0.11c-0.04,0.11-0.16,0.31-0.36,0.61c-0.62-0.62-0.97-0.92-1.07-0.92
		c0.25,0.39,0.57,0.96,0.96,1.7c-0.24,0.04-0.64,0.29-1.22,0.75c0.08,0.17,0.22,0.31,0.42,0.43c0.2,0.12,0.29,0.21,0.29,0.28
		c-0.24,0.36-0.55,0.88-0.94,1.55c0.14,0,0.22,0.08,0.25,0.23c0.04,0.15-0.05,0.29-0.27,0.4c0.08,0.1,0.23,0.11,0.44,0.04
		c0.31-0.1,0.52-0.15,0.65-0.15c0.25,0,0.77-0.58,1.55-1.74c0.61-0.94,1.22-1.88,1.82-2.83c0.15,0.15,0.24,0.31,0.25,0.48
		c0-0.15,0.08-0.31,0.25-0.48c0.06,0.06,0.06,0.17,0.02,0.34c-0.01,0.1,0.09,0.15,0.31,0.15c0.15,0,0.29-0.33,0.4-1.01
		c0.1-0.74,0.2-1.16,0.31-1.26c-0.03-0.08-0.04-0.17-0.04-0.27c0-0.39,0.33-1.2,0.99-2.42C71.22,5.88,71.55,5,71.55,4.47z
		 M65.21,6.02V4.11c0,0.01-0.29,0.09-0.86,0.23C64,4.43,63.83,4.59,63.83,4.82c0,0.25,0.2,0.5,0.61,0.73
		C64.7,5.71,64.96,5.86,65.21,6.02z M64.56,12.14c-0.38,0-0.59-0.15-0.65-0.44v0.8C64.04,12.5,64.26,12.38,64.56,12.14z
		 M65.26,17.45v-0.42h-0.9v0.42H65.26z M65.74,8.66V7.51c-0.06,0-0.11,0.04-0.16,0.1c-0.05,0.07-0.19,0.11-0.41,0.11
		c-0.24,0-0.38-0.07-0.43-0.22c-0.05-0.15-0.09-0.22-0.14-0.22v0.9c0.07,0,0.25,0.08,0.56,0.24C65.46,8.58,65.65,8.66,65.74,8.66z
		 M65.13,10.57V9.69h-0.42v0.88H65.13z M66.58,15.06l-0.36-0.13l-0.29,0.63l0.34,0.15L66.58,15.06z M67.52,14.53l-0.61-0.61
		l-0.23,0.25l0.57,0.59L67.52,14.53z M68.99,10.72l-0.36-0.13l-0.29,0.63l0.34,0.15L68.99,10.72z M69.7,20.78h-0.36l-0.29,0.8
		l0.36,0.15L69.7,20.78z M70.69,29.08l-0.59,0.88l-0.31-0.23l0.57-0.86L70.69,29.08z M70.67,17.7l-0.34-0.11l-0.31,0.61l0.34,0.15
		L70.67,17.7z M71.15,18.54v-0.65h-0.42v0.65H71.15z M72.57,23.82l-0.61,0.59l-0.23-0.25l0.59-0.59L72.57,23.82z M73.08,22.29
		l-0.34-0.13l-0.55,1.11l0.34,0.13L73.08,22.29z M73.56,20.59l-0.34-0.11l-0.54,1.09l0.34,0.15L73.56,20.59z M74.02,19.71
		l-0.25-0.23l-0.59,0.57l0.23,0.27L74.02,19.71z M75.01,16.92h-0.36l-0.78,2.26l0.36,0.13L75.01,16.92z M75.26,16.61v-0.65h-0.42
		v0.65H75.26z"/>
	<path class="st0" d="M79.09,20.38l-0.46,2.26H78.3l0.46-2.26H79.09z M94.15,23.7l-0.29,2.22c0-0.32-0.12-0.48-0.36-0.48
		c0.2,0.94-1.11,2.2-3.92,3.8c0-0.04,0.03-0.2,0.09-0.47c0.06-0.27,0.09-0.49,0.09-0.66c-0.11,0-0.31-0.13-0.59-0.4
		c-0.07,0.07-0.08,0.26-0.02,0.57c0.08,0.49,0.13,0.95,0.13,1.38c-1.64,0.63-3.12,0.94-4.45,0.94c-1.92,0-3.44-0.53-4.56-1.6
		c-1.13-1.07-1.69-2.52-1.69-4.35c0-0.22,0.01-0.45,0.02-0.67c0.13-0.15,0.25-0.3,0.38-0.44c0.15-0.2,0.31-0.28,0.48-0.25
		c0,0.49,0.13,0.92,0.4,1.3h0.15c-0.13-0.32-0.22-1.08-0.27-2.29c-0.04-0.99-0.2-1.6-0.48-1.82c0.11-0.11,0.24-0.28,0.38-0.5
		c-0.04-0.49,0.01-1.16,0.15-2.01c0.95-1.82,2.26-3.26,3.92-4.34c1.57-1.01,3.13-1.51,4.7-1.51c2.82,0,4.24,1.22,4.24,3.67
		c0,1.51-0.71,2.77-2.12,3.8c-0.67,0.49-2.33,1.34-4.97,2.54v-1.26c0.63-0.32,1.32-0.97,2.08-1.95c0.81-1.06,1.22-1.96,1.22-2.68
		c0-0.45-0.12-0.94-0.36-1.47c-0.34-0.73-0.77-1.09-1.3-1.09c-0.8,0-1.62,0.58-2.47,1.74c-0.78,1.05-1.22,1.96-1.3,2.73
		c-0.07-0.25-0.03-0.38,0.1-0.38l-0.34-0.29c-0.22,0.92-0.45,1.89-0.69,2.89c-0.1-0.42-0.06-0.82,0.13-1.22l-0.34-0.34
		c-0.15,0.21-0.29,0.52-0.4,0.92c-0.11,0.41-0.25,0.72-0.4,0.94c0.32-0.03,0.8,0.01,1.45,0.13c0.1-0.1,0.2-0.36,0.29-0.78v1.3
		c0.07,0.08,0.13,0.17,0.19,0.25c0.06,0.08,0.2,0.13,0.42,0.13c0.14,0,0.21-0.03,0.21-0.1c0-0.03-0.01-0.07-0.04-0.13
		c-0.03-0.06-0.04-0.1-0.04-0.13c0.01-0.07,0.08-0.1,0.21-0.1c0.22,0,0.48,0.15,0.78,0.46c0.08-0.08,0.13-0.23,0.15-0.45
		c0.01-0.22,0.06-0.36,0.13-0.43c0.06,1.15-0.25,1.81-0.92,1.99c-0.24,0-0.47-0.22-0.69-0.67c-0.21,0.21-0.31,0.54-0.31,1.01
		c0,0.71,0.38,1.52,1.13,2.43c0.67,0.84,1.23,1.31,1.68,1.41c0.39,0.08,0.79,0.16,1.2,0.23c0.61,0.14,0.96,0.31,1.03,0.5
		c0.34-0.33,0.54-0.5,0.63-0.5c0.07,0,0.14,0.02,0.21,0.06l0.5-0.46c-0.01,0.17,0.05,0.32,0.19,0.46
		C90.12,26.78,91.55,25.6,94.15,23.7z M80.88,20.95l-0.23-0.21l-0.54,0.52l0.21,0.25L80.88,20.95z M80.69,20.53l-0.1-1.26h-0.4
		l0.13,1.26H80.69z M81.59,24.39h-0.4l-0.23,1.26h0.38L81.59,24.39z M82.97,21.01c-0.42,0.67-0.73,1.49-0.94,2.45
		c-0.14-0.13-0.21-0.34-0.21-0.65c0-0.75,0.19-1.34,0.57-1.76h-0.86v2.6c0.25,0,0.41,0.13,0.46,0.38c-0.22,1.19-0.47,2.86-0.73,5.01
		c0.13-0.55,0.48-1.42,1.05-2.62c-0.11-0.31-0.17-0.65-0.17-1.03c0-0.5,0.13-1.24,0.4-2.2C82.8,22.17,82.95,21.44,82.97,21.01z
		 M82.91,17.84v-0.82h-0.38v0.82H82.91z M83.79,16.65l-0.31-0.13l-0.27,0.59l0.31,0.13L83.79,16.65z M86.24,28.54l-0.27-0.65
		l-0.31,0.13l0.27,0.52H86.24z M87.15,20.74l-0.29-0.65l-0.31,0.13l0.27,0.52H87.15z M88.7,29.21v-0.82h-0.38v0.82H88.7z
		 M89.35,18.73l-0.23-0.23l-0.54,0.54l0.21,0.23L89.35,18.73z"/>
	<path class="st0" d="M127.43,6.48l-0.46-0.19c-0.1,0.08-0.1,0.18-0.02,0.29c0.08,0.11,0.18,0.17,0.29,0.17
		c-0.74,0.43-1.35,1.5-1.82,3.19c-0.24,0.87-0.5,2.22-0.78,4.07c-0.45,2.95-0.7,4.57-0.75,4.86c-0.43,2.22-1.03,4.05-1.78,5.47
		c-0.66,1.24-1.88,2.51-3.68,3.8c-1.8,1.29-3.46,2.1-5,2.45c0.2-0.2,0.22-0.38,0.06-0.54c-0.2,0-0.29,0.19-0.29,0.57
		c-0.55-0.01-1.37-0.01-2.47,0c-1.3,0.01-1.92,0.02-1.85,0.02c-0.64,0-1.39-0.51-2.24-1.53c-0.78-0.91-1.18-1.54-1.19-1.91
		c0.32-0.32,0.26-0.48-0.19-0.48v-0.54c-0.11-0.47,0.37-1.15,1.45-2.03c1.03-0.85,1.82-1.28,2.37-1.28h1.03
		c0,0.06-0.13,0.21-0.38,0.46c0.13,0.1,0.25,0.15,0.38,0.15c-0.38,2.25-0.57,3.54-0.57,3.86c0,0.14,0.2,0.43,0.61,0.86
		c0.46,0.49,0.75,0.85,0.86,1.09c0.08-0.13,0.13-0.25,0.13-0.38c0.36,0.03,0.73,0.05,1.09,0.06c0.46,0.03,0.76,0.2,0.9,0.5
		c0.43-0.45,0.82-0.78,1.17-0.99c0.46-0.41,1.18-1.7,2.16-3.88c0.94-2.08,1.39-3.12,1.36-3.12c0.18,0,0.27,0.04,0.27,0.12
		c0,0.08,0.01,0.12,0.04,0.12c0.01-0.08,0.06-0.2,0.14-0.36c0.08-0.15,0.12-0.26,0.12-0.31c0-0.08-0.09-0.13-0.27-0.13
		c-0.17,0-0.27,0-0.29,0c-0.03,0-0.04,0.01-0.02,0.04c0.01,0.06,0.02,0.1,0.02,0.15c0.42-2.05,0.71-3.59,0.88-4.59
		c0-0.28,0.06-0.82,0.19-1.61c0.13-0.8,0.19-1.26,0.19-1.38c0-0.18,0.03-0.27,0.08-0.27c0.1,0.03,0.17,0.03,0.21,0
		c0-0.01,0.01-0.03,0.02-0.04c-0.01-0.08-0.02-0.18-0.02-0.29c0-1.24,0.75-2.81,2.26-4.7c1.64-2.06,3.22-3.08,4.74-3.08
		c0.43,0,0.99,0.22,1.66,0.67C127.55,6.25,127.36,6.48,127.43,6.48z M128.37,0.86c-0.31,0-0.62,0.15-0.94,0.46
		c0.27,0.27,0.31,0.5,0.13,0.69l-0.31-0.34c0-0.39,0.06-0.66,0.19-0.8h-1.13c0-0.06,0.03,0.06,0.1,0.36
		c0.03,0.17-0.01,0.29-0.13,0.38c-0.15-0.1-0.23-0.35-0.23-0.75h-0.71c0,0.38-0.1,0.57-0.29,0.57c-0.28-0.39-0.75-0.59-1.4-0.59
		c-3.06,0-6.06,0.94-9,2.83c-3.41,2.21-5.12,4.9-5.12,8.07c0,0.91,0.18,1.74,0.55,2.5c0.46,0.94,1.09,1.41,1.89,1.41
		c2.4-0.49,3.61-1.1,3.61-1.85c0,0.01-0.42-0.4-1.25-1.24c-0.83-0.84-1.25-1.63-1.25-2.39c0-0.24,0.05-0.48,0.15-0.71
		c-0.17,0-0.36-0.11-0.57-0.34c0.08-0.06,0.14-0.06,0.17-0.02c0.04,0.07,0.15,0.1,0.31,0.1c0.18,0,0.26-0.08,0.23-0.25
		c-0.04-0.22-0.05-0.35-0.02-0.38c0.59-1.68,2.03-3.16,4.34-4.45c2.06-1.15,3.94-1.73,5.64-1.76c0-0.29,0.04-0.48,0.13-0.57
		c0.07,0.07,0.17,0.15,0.29,0.25c0.13,0.1,0.22,0.18,0.29,0.25c-0.2-0.2-0.16-0.29,0.1-0.29c0.47,0,1.36,0.13,2.64,0.38l0.38-0.38
		c0.41,0.31,0.81,0.49,1.22,0.54c0-0.14-0.06-0.3-0.18-0.48c-0.12-0.18-0.18-0.29-0.18-0.33c0.27-0.2,0.46-0.34,0.59-0.42
		C128.49,1.14,128.41,0.99,128.37,0.86z M121.2,21.83l-0.46,0.67l0.25,0.19l0.48-0.69L121.2,21.83z M122.16,9.58l-0.25,0.5
		l0.27,0.13l0.25-0.52L122.16,9.58z M138.71,23.63c-0.18,0.18-0.87,0.85-2.08,2.01c-0.94,0.89-1.51,1.52-1.72,1.87
		c-0.15-0.15-0.12-0.33,0.1-0.54c-0.31,0.22-0.75,0.42-1.34,0.59c-0.49,0.15-0.91,0.41-1.26,0.75c-0.14-0.28-0.05-0.58,0.27-0.9
		c-0.53-0.21-0.8-0.79-0.8-1.74c0-0.5,0.07-0.91,0.21-1.22c-0.13,0-0.25-0.06-0.38-0.17c0.39-0.67,0.59-1.41,0.59-2.22
		c0-2.07-1.04-3.98-3.12-5.72c5.12-1.24,7.75-3.38,7.91-6.39c0.18-0.13,0.27-0.47,0.27-1.03c0-0.84-0.17-1.69-0.5-2.56
		c-0.41-1.02-0.89-1.55-1.47-1.59c-0.01-0.46-0.3-0.92-0.86-1.38c-0.15,0-0.55-0.32-1.2-0.96c0,0.11-0.07,0.29-0.21,0.54
		c0.1-0.1,0.22-0.14,0.36-0.13c0.14,0.03,0.21,0.09,0.21,0.19c-0.39,0.07-0.62,0.42-0.69,1.05c-0.03,0.42-0.05,0.84-0.06,1.26
		c-0.48-0.29-0.75-0.53-0.84-0.71c0.24-0.11,0.41-0.17,0.5-0.17c0.01-0.15,0.1-0.49,0.27-1.01c0.14-0.48,0.21-0.79,0.21-0.94
		c0-0.31-0.08-0.47-0.25-0.48c-0.63,0-0.97,0.03-1.03,0.08c0.1-0.1,0.17-0.1,0.23,0c0.06,0.11,0.03,0.22-0.06,0.31h-0.69
		c-0.11-0.22-0.17-0.54-0.17-0.94c-0.57-0.29-0.99-0.44-1.24-0.44c-0.14,0-0.34,0.13-0.59,0.4c-0.28-0.26-0.5-0.46-0.65-0.59v1.91
		c0.03,0,0.24,0.21,0.65,0.63c0.03-0.04,0.11-0.17,0.25-0.4c0.1-0.15,0.18-0.23,0.25-0.23c0,0.6,0.03,0.94,0.1,1.01
		c0-0.13,0.06-0.25,0.17-0.38c1.23,1.73,1.85,3.36,1.85,4.87c0,1.22-0.25,2.51-0.75,3.88c-0.66,1.84-1.55,2.81-2.66,2.89
		c-0.53,0-1.07,0-1.61,0c-0.75,0.03-1.28,0.18-1.57,0.46v1.13c0.73,0.06,1.29,0.45,1.68,1.17c0.29,0.57,0.44,1.19,0.44,1.84
		c0,0.17-0.23,1.24-0.68,3.22c-0.45,1.98-0.68,3.05-0.68,3.22c0,0.68,0.26,1.54,0.78,2.56c0.67,1.34,1.49,2.01,2.45,2.01
		c0.15,0,0.22-0.03,0.19-0.09c-0.03-0.06,0.03-0.09,0.19-0.09c0.1,0,0.15,0.02,0.17,0.06c0,0.03-0.02,0.07-0.06,0.13
		c-0.04,0.06-0.06,0.1-0.06,0.13c0,0.04,0.06,0.06,0.17,0.06h1.15c1.15,0,2.4-0.51,3.75-1.53c0.82-0.61,2.13-1.81,3.92-3.59V23.63z
		 M128.96,18.98c-0.08,0-0.2,0.09-0.34,0.27c-0.14,0.18-0.21,0.32-0.21,0.42c0.25,0.14,0.44,0.21,0.57,0.21
		C128.96,19.88,128.96,19.58,128.96,18.98z M128.79,17.97l-0.36,0.69l0.27,0.1l0.36-0.71L128.79,17.97z M130.01,2.56h-0.31l0.23-0.9
		h0.31L130.01,2.56z M131.99,3.49c-0.06,0.27-0.09,0.42-0.09,0.43c-0.04,0-0.07-0.02-0.08-0.06c-0.03-0.2-0.12-0.29-0.27-0.29
		c-0.2,0-0.33,0.02-0.41,0.06c-0.08,0.04-0.14,0.06-0.18,0.06c0.1-0.08,0.13-0.17,0.08-0.27c-0.03-0.1-0.09-0.15-0.19-0.15
		c0.41,0,0.61,0.04,0.61,0.1c0.03-0.03,0.08-0.21,0.17-0.54c0.04-0.18,0.2-0.25,0.46-0.21C132.08,2.93,132.05,3.22,131.99,3.49z
		 M133.09,11.53l-0.27,0.11l0.25,0.46h0.27L133.09,11.53z M133.72,6.25h-0.34l0.23-0.9h0.34L133.72,6.25z M133.86,5.14l-0.27-0.13
		l0.44-0.88l0.29,0.11L133.86,5.14z M135.81,11.53l-0.27,0.11l0.25,0.46h0.27L135.81,11.53z M136.95,8.01l-0.23-0.46l0.27-0.1
		l0.25,0.57H136.95z"/>
	<path class="st0" d="M149.59,23.36c0.04,0.18,0.06,0.37,0.06,0.57c0,1.2-0.94,2.6-2.81,4.19c-1.12,0.95-1.89,1.57-2.31,1.84
		c-0.8,0.52-1.55,0.78-2.26,0.78c-2.1,0-3.15-1.79-3.15-5.37c0-3.42,0.6-5.77,1.8-7.05c-0.14-0.11-0.29-0.17-0.44-0.17v-0.71
		c-0.01-0.15,0.17-0.68,0.57-1.59c0.45-1.02,0.85-1.62,1.22-1.8c-0.08-0.15-0.2-0.23-0.34-0.23c0.28,0,0.42-0.26,0.42-0.78
		c0.01,0.07,0.1,0.22,0.25,0.44c0.01,0,0.03-0.01,0.04-0.04c0.01-0.03,0.01-0.12,0-0.27c-0.01-0.08,0.08-0.13,0.27-0.13
		c0.2,0,0.85-0.11,1.95-0.33c1.31-0.28,2.19-0.45,2.64-0.52c-0.17,0.41-0.35,1.16-0.54,2.26c-0.11,0.66-0.41,1.12-0.88,1.38
		c0.14,0.11,0.28,0.17,0.42,0.17c-1.64,4.89-2.45,7.64-2.45,8.24c0,0.67,0.49,1.5,1.47,2.47C146.89,25.82,148.25,24.7,149.59,23.36z
		 M144.31,14.26l-1.55-0.61v0.31l1.43,0.61L144.31,14.26z M148.54,6.33c0,0.52-0.25,1.06-0.77,1.61c-0.51,0.56-1.04,0.84-1.6,0.84
		h-0.69c-1.24-0.67-1.87-1.49-1.87-2.45c0-0.57,0.26-1.13,0.79-1.67c0.52-0.54,1.09-0.81,1.69-0.81c0.62,0,1.19,0.31,1.72,0.94
		C148.3,5.38,148.54,5.89,148.54,6.33z M146.07,15.33c-0.08,0-0.27-0.03-0.56-0.09s-0.46-0.09-0.53-0.09l0.82,0.8
		C145.8,15.81,145.89,15.61,146.07,15.33z"/>
	<path class="st0" d="M169.78,25.69c-1.01,0.71-2.02,1.42-3.04,2.12c-1.3,0.88-2.35,1.47-3.14,1.76c-0.57,1.31-1.15,2.62-1.72,3.92
		c-0.74,1.58-1.74,3.13-3,4.63c-0.14-0.32-0.38-1.13-0.71-2.41H158c0.03,0.25,0.13,0.73,0.31,1.43c0.17,0.64,0.25,1.05,0.25,1.22
		c0,0.67-0.82,1.31-2.47,1.91c-1.3,0.49-2.21,0.73-2.73,0.73c-2.43,0-3.65-1.25-3.65-3.75c0-2.39,1.56-4.35,4.7-5.87
		c0.84-0.29,2.1-0.78,3.77-1.47c0.36-0.18,0.6-0.72,0.71-1.61c0.11-0.89,0.36-1.48,0.76-1.76c-0.17-0.1-0.35-0.36-0.55-0.78
		c-2.15,2.8-4.21,4.19-6.19,4.19c-2.59,0-3.88-1.99-3.88-5.96c0-3.1,1.06-5.81,3.17-8.14c2.15-2.39,4.75-3.59,7.78-3.59
		c0.17,0,0.69,0.26,1.56,0.78c0.87,0.52,1.39,0.78,1.54,0.78c0.15,0,0.76-0.24,1.8-0.71c1.23-0.55,2.05-0.89,2.47-1.03
		c-0.6,2.08-1.31,4.96-2.14,8.62c-0.77,3.37-1.15,5.23-1.15,5.58v1.28c0.62,0.08,1.57-0.4,2.87-1.45c0.95-0.78,1.89-1.56,2.83-2.33
		V25.69z M157.87,31.75c-0.35,0-0.61-0.08-0.78-0.25c-0.13,0.31-0.78,0.8-1.97,1.47c-1.12,0.64-1.78,0.96-1.99,0.96
		c-0.43,0-0.65-0.33-0.65-1.01c0,0.57,0.11,1.08,0.34,1.53c-0.73,0.53-1.2,1.04-1.4,1.53c-0.1,0.25-0.15,0.67-0.15,1.26
		c0,1.47,0.66,2.2,1.99,2.2c1.05,0,1.92-0.64,2.62-1.91c0.39-0.94,0.78-1.87,1.17-2.79c0.56-1.22,0.83-1.89,0.82-2.01V31.75z
		 M161.61,17.57v-0.8c-0.1-0.63-0.2-1.25-0.29-1.87c-0.18-0.73-0.8-1.09-1.87-1.09c-1.58,0-2.91,1.17-4,3.5
		c-0.87,1.89-1.3,3.63-1.3,5.22c0,2.43,0.7,3.65,2.1,3.65c1.2,0,2.19-0.67,2.98-2.01c0.46-0.81,0.92-2.07,1.36-3.77
		c0.38-1.41,0.66-2.15,0.84-2.22c-0.07-0.49-0.05-0.73,0.06-0.73C161.52,17.46,161.56,17.5,161.61,17.57z M157.98,35.21h-0.4v-1.26
		h0.4V35.21z M161.5,27.91l-0.27-0.63l-0.31,0.13l0.27,0.5H161.5z M162.84,19.29v-0.8h-0.4v0.8H162.84z"/>
	<path class="st0" d="M190.82,25.48c0.03,0.08-0.24,0.4-0.82,0.94c-1.83,1.78-3.62,3.01-5.37,3.69c0.04-0.52-0.15-0.92-0.59-1.2
		c-0.24-0.14-0.36-0.42-0.36-0.84c0-0.27,0.07-0.77,0.22-1.52c0.15-0.75,0.23-1.33,0.24-1.75c-0.42,0.21-0.63,0.66-0.63,1.36
		c-0.24-0.63-0.36-1.27-0.36-1.93c0-0.67,0.15-1.23,0.46-1.68l-0.38-0.38c-0.15,0.15-0.23,0.36-0.23,0.61c0-0.91-0.22-2.08-0.65-3.5
		c-0.13,0.07-0.19,0.39-0.19,0.96c0,0.69,0.16,2.22,0.48,4.59c0.39,2.85,0.78,4.62,1.15,5.31c0.27,0,0.42-0.2,0.46-0.61v0.78
		c-0.45,0.2-1.26,0.29-2.45,0.29c-0.7,0-1.32-0.49-1.87-1.47c-0.45-0.84-0.67-1.59-0.67-2.26c0-0.49,0.29-1.65,0.88-3.48
		c0.59-1.83,0.88-2.75,0.88-2.77c0.14,0,0.36-0.08,0.65-0.23c-0.17-0.14-0.32-0.21-0.46-0.21c0.28-0.48,0.61-1.5,0.99-3.08h0.34
		c0.06-0.07,0.02-0.21-0.12-0.41c-0.13-0.2-0.2-0.38-0.2-0.54c0.11,0.07,0.3,0.23,0.57,0.48c0.07,0.04,0.18-0.01,0.33-0.15
		c-0.35-0.71-0.71-1.07-1.09-1.07c-0.06,0-0.87,0.48-2.43,1.45c-1.57,0.96-2.36,1.45-2.39,1.45c-0.24,0-0.36-0.01-0.38-0.02
		c-0.03-0.08-0.06-0.16-0.11-0.23c-0.08,0.1-0.1,0.26-0.06,0.48c0.04,0.24,0.06,0.38,0.04,0.42c-0.48,0-0.81,0.31-1.01,0.94
		c-0.39,1.24-0.64,2.8-0.73,4.68c-0.06,1.59-0.11,3.19-0.17,4.78c-1.87,0.6-3.42,1.01-4.65,1.22c0-0.5-0.05-1.32-0.15-2.44
		c-0.1-1.13-0.15-1.75-0.15-1.88c0-1.26,0.12-2.1,0.36-2.52c0.22-0.13,0.53-0.27,0.92-0.42c0.03-0.03,0.17-0.43,0.44-1.2
		c-0.08,0-0.15-0.04-0.19-0.13c-0.07-0.15-0.13-0.26-0.19-0.31c-0.17,0.15-0.34,0.43-0.51,0.84s-0.34,0.68-0.49,0.84
		c-0.08-0.67-0.06-1.56,0.06-2.68c0.13-1.3,0.33-2.14,0.63-2.52c-0.1-0.43-0.19-0.65-0.27-0.65c0.17-0.21,0.38-0.89,0.63-2.05
		c0.24-1.09,0.56-1.82,0.96-2.2c-0.01,0.22-0.12,0.47-0.3,0.73c-0.19,0.27-0.28,0.48-0.28,0.65c0,0.21,0.1,0.47,0.29,0.78
		c0.17-0.1,0.25-0.22,0.25-0.36c0,0.24-0.13,0.48-0.38,0.71c0.06,0.13,0.19,0.33,0.4,0.61c0.2-0.21,0.55-0.5,1.07-0.86
		c-0.08-0.08-0.11-0.22-0.07-0.42c0.04-0.2,0.02-0.34-0.05-0.42l-0.48,0.48c0.01-0.43,0.03-0.87,0.04-1.3
		c0.03-0.35,0.29-0.68,0.8-0.99c-0.1-0.1-0.13-0.15-0.1-0.15c-0.11,0.03-0.24,0.04-0.38,0.04c-0.49,0-0.61,0.12-0.36,0.36
		l-0.61-0.48c0.42-0.39,0.79-0.92,1.11-1.57c0,0.46-0.13,0.82-0.4,1.07c0.28,0.04,0.72,0.17,1.32,0.38c0.07-0.08,0.17-0.14,0.3-0.18
		c0.13-0.04,0.23-0.09,0.3-0.18c-0.2-0.15-0.75-0.8-1.68-1.93c0.18-0.24,0.27-0.43,0.27-0.57c0.06,0,0.23,0.04,0.51,0.12
		c0.29,0.08,0.52,0.12,0.7,0.12c0.03-0.13-0.06-0.25-0.27-0.39s-0.45-0.2-0.71-0.2c1.16-1.69,1.74-2.87,1.74-3.54
		c0.18,0,0.44,0.08,0.78,0.25l0.36-0.38c-0.08-0.08-0.24-0.16-0.48-0.24c-0.24-0.08-0.4-0.16-0.48-0.24
		c0.13-0.13,0.41-0.57,0.86-1.34c0.38-0.67,0.75-1.11,1.13-1.32c0.89-0.52,2.18-1.08,3.86-1.68c1.54-0.56,2.48-0.84,2.83-0.84
		c0.45,0,0.81,0.42,1.09,1.26c0.24,0.66,0.36,1.29,0.36,1.89c0,1.02-0.32,2.27-0.96,3.75c-0.69,1.59-1.41,2.63-2.18,3.1
		c0.17,0.13,0.33,0.19,0.48,0.19c-0.52,0.78-1.19,1.8-2.03,3.06c-0.07-0.06-0.23-0.13-0.48-0.23c-0.2-0.08-0.29-0.17-0.29-0.25
		c-0.1,0.1-0.1,0.25,0,0.44c0.07,0.13,0.15,0.25,0.23,0.38c-0.21,0.11-0.31,0.2-0.31,0.27c0,0.63,0.07,1.01,0.2,1.13
		c0.13,0.13,0.51,0.19,1.14,0.19c0.17,0,0.26,0.03,0.27,0.08c0,0.03-0.02,0.07-0.05,0.13c-0.04,0.06-0.05,0.1-0.05,0.15
		c0.01,0.06,0.04,0.1,0.06,0.13l0.61-0.61l-0.4-0.36c-0.39,0.1-0.72,0.11-0.99,0.04c-0.33-0.1-0.47-0.15-0.42-0.15
		c0.03,0,0.17-0.06,0.43-0.19s0.51-0.19,0.77-0.19c0.25,0,0.64,0.36,1.17,1.09c0.42,0.6,0.83,1.2,1.24,1.8l0.36-0.36
		c-0.2-0.27-0.99-1.33-2.39-3.19c0.06,0,0.15-0.09,0.28-0.27c0.13-0.18,0.32-0.27,0.56-0.27c0.14,0,0.55-0.12,1.24-0.36
		c0.68-0.24,1.2-0.36,1.53-0.36c0.71,0,1.31,0.37,1.8,1.11c0.41,0.63,0.61,1.22,0.61,1.76l-0.25,0.36c0.2,0.38,0.17,1.01-0.08,1.9
		c-0.25,0.89-0.82,2.57-1.7,5.04c-0.74,2.08-1.11,3.23-1.11,3.44c0,0.88,0.36,1.32,1.09,1.32c0.42,0,1.3-0.56,2.64-1.68
		c0.75-0.64,1.51-1.28,2.26-1.91V25.48z M172.28,17.26l-0.59-0.63c-0.06,0.06-0.08,0.12-0.08,0.19c0,0.1,0.05,0.28,0.16,0.54
		c0.1,0.27,0.16,0.47,0.16,0.61C171.92,17.73,172.04,17.5,172.28,17.26z M172.13,21.91v-0.65h-0.42v0.65H172.13z M172.55,23.17
		l-0.71,0.29v-0.36l0.59-0.29L172.55,23.17z M173.2,17.09c0-0.08-0.09-0.18-0.27-0.29c-0.18-0.11-0.27-0.2-0.27-0.27
		c0,0.14-0.2,0.22-0.61,0.25L173.2,17.09z M172.78,22.21l-0.13-0.36l-0.57,0.29v0.36L172.78,22.21z M174.15,13.74v-0.92
		c-0.13,0-0.34,0.12-0.65,0.36C173.84,13.17,174.06,13.36,174.15,13.74z M175.24,12.54c-0.62,1.23-1.19,1.8-1.72,1.72l0.31,1.17
		C174.31,14.72,174.77,13.76,175.24,12.54z M176.79,8.91c0-0.13-0.22-0.41-0.65-0.84c0.15-0.14,0.23-0.32,0.23-0.55
		c-0.08,0-0.21,0.07-0.39,0.22c-0.17,0.15-0.3,0.22-0.39,0.22c-0.18-0.17-0.27-0.41-0.27-0.73c-0.11,0.41-0.31,0.96-0.59,1.66
		c0.07-0.06,0.14-0.08,0.21-0.08c0.1,0,0.22,0.36,0.38,1.07c0-0.08-0.1-0.2-0.31-0.33c-0.29-0.21-0.45-0.33-0.48-0.36
		c0.35,1.3,0.52,2.01,0.5,2.14c0.52-0.78,0.86-1.43,1.03-1.93c0.15,0.15,0.33,0.22,0.54,0.21c-0.35-0.67-0.46-1.05-0.33-1.15
		L176.79,8.91z M175.03,24.07h-0.42v-0.88h0.42V24.07z M175.34,16.38v-0.82c-0.01,0.07-0.12,0.15-0.33,0.25
		c-0.2,0.1-0.3,0.19-0.3,0.27C174.87,16.24,175.08,16.33,175.34,16.38z M175.51,14.32l-0.36-0.1l-0.29,0.61l0.34,0.15L175.51,14.32z
		 M175.74,14.2v-0.9h-0.42v0.9H175.74z M176.49,9.92l-0.29,1.13h-0.4l0.27-1.13H176.49z M183.85,4.47c0-0.21-0.05-0.56-0.14-1.05
		c-0.09-0.49-0.14-0.82-0.14-0.99h-1.09c-2.4,3.06-3.93,5.87-4.57,8.43c-0.04-0.04-0.1-0.06-0.17-0.06c-0.39,0-0.59,0.17-0.59,0.52
		c0.31-0.21,0.53-0.25,0.67-0.11c-0.04,0.11-0.16,0.31-0.36,0.61c-0.62-0.62-0.97-0.92-1.07-0.92c0.25,0.39,0.57,0.96,0.96,1.7
		c-0.24,0.04-0.64,0.29-1.22,0.75c0.08,0.17,0.22,0.31,0.42,0.43c0.2,0.12,0.29,0.21,0.29,0.28c-0.24,0.36-0.55,0.88-0.94,1.55
		c0.14,0,0.22,0.08,0.25,0.23c0.04,0.15-0.05,0.29-0.27,0.4c0.08,0.1,0.23,0.11,0.44,0.04c0.31-0.1,0.52-0.15,0.65-0.15
		c0.25,0,0.77-0.58,1.55-1.74c0.62-0.94,1.22-1.88,1.82-2.83c0.15,0.15,0.24,0.31,0.25,0.48c0-0.15,0.08-0.31,0.25-0.48
		c0.06,0.06,0.06,0.17,0.02,0.34c-0.01,0.1,0.09,0.15,0.31,0.15c0.15,0,0.29-0.33,0.4-1.01c0.1-0.74,0.2-1.16,0.31-1.26
		c-0.03-0.08-0.04-0.17-0.04-0.27c0-0.39,0.33-1.2,0.99-2.42C183.53,5.88,183.85,5,183.85,4.47z M177.52,6.02V4.11
		c0,0.01-0.29,0.09-0.86,0.23c-0.35,0.08-0.52,0.25-0.52,0.48c0,0.25,0.2,0.5,0.61,0.73C177.01,5.71,177.27,5.86,177.52,6.02z
		 M176.87,12.14c-0.38,0-0.59-0.15-0.65-0.44v0.8C176.35,12.5,176.56,12.38,176.87,12.14z M177.56,17.45v-0.42h-0.9v0.42H177.56z
		 M178.05,8.66V7.51c-0.06,0-0.11,0.04-0.16,0.1c-0.05,0.07-0.19,0.11-0.41,0.11c-0.24,0-0.38-0.07-0.43-0.22
		c-0.05-0.15-0.09-0.22-0.14-0.22v0.9c0.07,0,0.25,0.08,0.56,0.24C177.77,8.58,177.96,8.66,178.05,8.66z M177.44,10.57V9.69h-0.42
		v0.88H177.44z M178.88,15.06l-0.36-0.13l-0.29,0.63l0.33,0.15L178.88,15.06z M179.83,14.53l-0.61-0.61l-0.23,0.25l0.57,0.59
		L179.83,14.53z M181.3,10.72l-0.36-0.13l-0.29,0.63l0.34,0.15L181.3,10.72z M182.01,20.78h-0.36l-0.29,0.8l0.36,0.15L182.01,20.78z
		 M182.99,29.08l-0.59,0.88l-0.31-0.23l0.57-0.86L182.99,29.08z M182.97,17.7l-0.33-0.11l-0.31,0.61l0.33,0.15L182.97,17.7z
		 M183.46,18.54v-0.65h-0.42v0.65H183.46z M184.88,23.82l-0.61,0.59l-0.23-0.25l0.59-0.59L184.88,23.82z M185.38,22.29l-0.33-0.13
		l-0.54,1.11l0.33,0.13L185.38,22.29z M185.87,20.59l-0.33-0.11l-0.55,1.09l0.34,0.15L185.87,20.59z M186.33,19.71l-0.25-0.23
		l-0.59,0.57l0.23,0.27L186.33,19.71z M187.31,16.92h-0.36l-0.78,2.26l0.36,0.13L187.31,16.92z M187.57,16.61v-0.65h-0.42v0.65
		H187.57z"/>
	<path class="st0" d="M203.04,23.36c0.03,0.14,0.04,0.29,0.04,0.46c0,1.43-1.1,2.93-3.29,4.51c-2.07,1.48-3.84,2.22-5.3,2.22
		c-0.83,0-1.27-0.24-1.32-0.71c-0.13,0.17-0.19,0.32-0.19,0.46c3.76-7.66,5.77-11.74,6.02-12.25c-0.04,0-0.08,0-0.13,0
		c-0.08,0.14-2.16,4.06-6.23,11.76c-0.17,0-0.25-0.03-0.25-0.08c0-0.06,0.14-0.22,0.42-0.48c-0.2-0.1-0.45-0.12-0.75-0.06
		c-0.43,0.08-0.68,0.13-0.75,0.13c0-0.28-0.13-0.67-0.4-1.17c-0.36-0.66-0.57-1.05-0.61-1.17c0.35,0.33,0.68,0.5,1.01,0.5
		c0.01-0.24,0.08-0.44,0.21-0.6c0.13-0.16,0.19-0.25,0.19-0.28c0-0.1-0.14-0.24-0.42-0.42c0-0.33,0.42-0.7,1.26-1.09
		c-0.33,0.31-0.24,0.46,0.29,0.46v-0.59c-0.11-0.11-0.42-0.17-0.92-0.17c-0.24,0-0.36-0.04-0.37-0.13
		c-0.01-0.08-0.04-0.13-0.09-0.13c-0.29,0.28-0.44,0.41-0.44,0.38c0-0.7,0.01-0.87,0.04-0.52c-0.01-0.21-0.15-0.31-0.42-0.31
		c-0.24,0-0.4,0.05-0.48,0.15c-0.04,0.06-0.1,0.05-0.17-0.02c0.25-0.53,0.38-1.17,0.38-1.93c0,0.42,0.08,0.7,0.23,0.84
		c0.24-0.5,0.64-0.89,1.22-1.15c0-0.22-0.34-0.33-1.01-0.33v-1.61c0.13,0.03,0.25,0.04,0.38,0.04c0.49,0,1.01-0.25,1.57-0.75
		c0.74-0.66,1.2-1.03,1.36-1.11c0.01-0.01,0.03-0.02,0.04-0.02c0.01-0.03-0.01-0.05-0.06-0.07c-0.06-0.02-0.18-0.03-0.38-0.03
		c-0.36,0-0.97,0.4-1.82,1.2c-0.13-0.25-0.19-0.55-0.19-0.9c0-0.31,0.06-0.73,0.18-1.26c0.12-0.53,0.18-0.87,0.18-1.01
		c-0.33-0.18-0.85-0.25-1.53-0.21c0-0.11,0.05-0.4,0.16-0.87c0.1-0.47,0.16-0.85,0.16-1.14c0-0.43-0.1-0.78-0.29-1.05h2.58
		c0.52-1.52,1.31-3.74,2.37-6.65c3.15-0.7,4.71-1.05,4.7-1.05h1.11c-0.39,1.26-0.78,2.52-1.17,3.8c-0.53,1.65-1.08,2.82-1.64,3.5
		l0.4,0.36c0.33-0.32,0.8-0.48,1.4-0.48c0.22,0,0.54,0.06,0.94,0.17c0.41,0.11,0.69,0.17,0.86,0.17c-0.52,0.17-1.29,0.62-2.33,1.36
		c0.18,0.25,0.45,0.31,0.82,0.17c0.03,0.01,0.09,0.11,0.2,0.28c0.1,0.17,0.18,0.26,0.24,0.26l0.73-0.46c0,0.07-0.04,0.26-0.12,0.57
		c-0.08,0.31-0.12,0.5-0.12,0.59c-0.91-0.03-1.95,0.01-3.12,0.1c-0.32,0.42-0.9,1.01-1.74,1.76c-0.13,0.08-0.19,0.15-0.19,0.21
		c0,0.07,0.11,0.1,0.33,0.1c0.24,0,0.39-0.03,0.45-0.08c0.06-0.06,0.12-0.08,0.18-0.08c-0.25,0.34-0.54,0.83-0.86,1.49
		c0.04,0.13,0.06,0.27,0.06,0.44c0,0.36-0.17,1.11-0.5,2.24c-0.33,1.13-0.5,1.96-0.5,2.5c0,0.62,0.16,1.18,0.48,1.7
		c0.39,0.63,0.92,0.94,1.59,0.94c0.81,0,1.77-0.43,2.87-1.3C201.41,24.73,202.23,24.04,203.04,23.36z M191.21,23.93v-0.42h-0.69
		v0.42H191.21z M192.16,20.34c0,0.08-0.09,0.19-0.28,0.3c-0.19,0.12-0.28,0.21-0.28,0.28c0.35-0.32,0.52-0.24,0.52,0.25
		c0.01-0.01,0.02-0.03,0.03-0.04C192.15,21.12,192.16,20.86,192.16,20.34z M192.39,25.6l-0.38-0.1l-0.33,0.61l0.38,0.15L192.39,25.6
		z M193.06,28.56c0-0.08-0.05-0.19-0.15-0.31c-0.1-0.13-0.15-0.22-0.15-0.29c-0.46,0-0.69,0.22-0.69,0.65
		c0.04,0,0.24,0.02,0.59,0.06C192.83,28.69,192.96,28.66,193.06,28.56z M193.25,19.5c-0.17,0-0.48,0.22-0.94,0.65
		c0.35,0,0.65,0.1,0.9,0.31C193.56,20.13,193.57,19.81,193.25,19.5z M194.38,19.25l-1.01-0.31v0.36l0.86,0.29L194.38,19.25z
		 M195.45,19.48l-0.25-0.31l-1.03,0.82l0.23,0.34L195.45,19.48z M197.42,15.14c0-0.46-0.12-0.69-0.36-0.69
		c-0.1,0-0.25,0.12-0.44,0.36c-0.29,0.35-0.45,0.53-0.46,0.54c0.1,0,0.31-0.03,0.63-0.1C197.11,15.17,197.32,15.14,197.42,15.14z
		 M200.36,12.71l-0.27-0.23l-0.88,0.82l0.23,0.25L200.36,12.71z"/>
	<path class="st0" d="M233.61,11.16c-0.39,2.6-0.78,5.2-1.17,7.8c-0.64,3.13-1.73,5.53-3.25,7.2c-1.52,1.67-3.08,2.85-4.68,3.53
		c-1.41,0.6-3.09,0.9-5.03,0.9c-1.58,0-2.91-0.29-4.01-0.88c-1.43-0.78-2.14-1.97-2.14-3.56c0-0.53,0.52-1.25,1.55-2.16
		c0.98-0.88,1.68-1.32,2.12-1.32c0.1,0,0.15,0.03,0.17,0.08c0,0.01-0.03,0.05-0.07,0.12c-0.05,0.06-0.07,0.11-0.07,0.14
		c0.01,0.04,0.07,0.06,0.17,0.06c0.11,0,0.17-0.03,0.19-0.08c0-0.01-0.01-0.05-0.03-0.11c-0.02-0.06-0.03-0.09-0.03-0.1
		c0-0.06,0.06-0.08,0.19-0.08h0.75c0.1,0.38,0.15,0.83,0.15,1.34c0,0.35-0.03,0.85-0.08,1.5c-0.06,0.65-0.08,1.11-0.08,1.37
		c0,1.4,0.68,2.1,2.03,2.1c2.32,0,4.01-1.58,5.05-4.74c0,0.41,0.06,0.67,0.19,0.8c0.15-0.13,0.23-0.27,0.23-0.42
		c0-0.11-0.05-0.29-0.16-0.55c-0.1-0.25-0.14-0.43-0.12-0.54c0.52-2.38,0.91-4.16,1.17-5.35c0.57-3.73,0.9-5.78,0.99-6.14
		c0.31-1.26,0.85-2.45,1.62-3.59c0.43-0.64,1.27-1.42,2.52-2.33c1.34-0.98,2.36-1.47,3.04-1.47c0.56,0,0.99,0.3,1.3,0.9
		C234.93,6.53,234.1,8.39,233.61,11.16z M217.87,26.21l-0.67-0.23l-0.1,0.27l0.78,0.25V26.21z M241.56,5.93
		c-0.15-0.59-0.45-1.28-0.9-2.07c-0.45-0.79-0.75-1.18-0.9-1.18c-0.15,0-0.22,0.04-0.19,0.1c0.03,0.07-0.04,0.1-0.19,0.1
		c0.08,0-0.1-0.21-0.54-0.63c-0.53-0.5-1.27-0.93-2.2-1.28c-1.55-0.57-2.55-0.86-3-0.86c-0.14,0-0.3,0.06-0.49,0.19
		c-0.19,0.13-0.35,0.19-0.49,0.19c-0.14,0-0.43-0.06-0.88-0.19c-0.45-0.13-0.75-0.19-0.9-0.19c-2.4,0-4.9,0.85-7.49,2.56
		c-2.52,1.66-4.24,3.52-5.16,5.58c0.03,0.31-0.09,0.75-0.36,1.34s-0.38,1.31-0.33,2.16c0.17,0,0.34-0.06,0.51-0.19
		c0.17-0.13,0.28-0.19,0.3-0.19c0.13,0.13,0.17,0.24,0.15,0.34c0.04,0.94,0.15,1.59,0.33,1.96c0.17,0.37,0.26,0.6,0.26,0.68
		c0,0.2-0.05,0.27-0.15,0.21c-0.21-0.1-0.36-0.15-0.44-0.15c0.62,0.62,1.04,0.92,1.28,0.92c0.42,0,1.51-0.35,3.27-1.05
		c-0.22-0.8-0.38-1.48-0.48-2.06c-0.03-0.07-0.25-0.33-0.67-0.8c-0.29-0.32-0.44-0.93-0.44-1.82c0-1.83,1.11-3.63,3.33-5.41
		c2.1-1.68,4.05-2.52,5.87-2.52c2.07,0,3.64,0.23,4.72,0.69c1.8,0.8,2.71,2.28,2.71,4.45c0,1.17-0.22,2.32-0.65,3.44
		c-0.15,0.39-0.63,1.13-1.43,2.2c-0.73,0.98-1.09,1.54-1.09,1.7c0,0.29,0.23,0.57,0.69,0.82c0.42,0.24,0.85,0.36,1.3,0.36
		c0.45,0,1.22-0.41,2.31-1.23c1.09-0.82,1.64-1.46,1.64-1.94c0-0.14-0.06-0.32-0.17-0.54c-0.11-0.22-0.17-0.38-0.17-0.46
		c0-0.06,0.02-0.11,0.06-0.17c0.27,0.29,0.47,0.52,0.61,0.67c0.57-1.85,0.86-3.03,0.86-3.54C242.04,7.81,241.88,7.08,241.56,5.93z
		 M218.01,13.95l-0.19-1.32h0.34l0.21,1.32H218.01z M218.01,10.38V9.46h0.36v0.92H218.01z M218.22,10.97v-0.52h0.34v0.52H218.22z
		 M223.32,14.18c-0.22-0.71-0.38-1.29-0.46-1.74c0.24,0,0.56,0.2,0.96,0.61v0.67L223.32,14.18z M226.09,25.48h-0.36l0.21,1.32h0.34
		L226.09,25.48z M226.38,23.9l-0.44,1.05l0.29,0.13l0.44-1.17H226.38z M232.54,13.8l-0.27-0.13l0.25-0.5l0.29,0.11L232.54,13.8z
		 M237.75,11.46c-0.43,0.29-0.7,0.52-0.83,0.7c0.39-0.38,0.68-0.57,0.86-0.57c0.31,0,0.45,0.06,0.44,0.19
		c0-0.29,0.08-0.52,0.25-0.69C238.42,11.05,238.18,11.17,237.75,11.46z M237.79,14.3l-0.46,0.23v0.29l0.59-0.25L237.79,14.3z
		 M238.31,13.63v-0.27l0.46-0.25l0.13,0.29L238.31,13.63z M240.26,7.26l-0.27-0.13l0.25-0.5l0.29,0.11L240.26,7.26z"/>
	<path class="st0" d="M255.67,12.16c-0.53,1.61-1.08,3.15-1.66,4.63c-0.07-0.36-0.22-0.88-0.46-1.55c-0.28,0.43-0.39,1.13-0.34,2.08
		c0.15,0.14,0.36,0.08,0.61-0.17c0,0.24-0.15,0.47-0.46,0.71c-0.13,0.67-0.42,1.89-0.88,3.67c-0.39,1.55-0.59,2.42-0.59,2.6
		c0,0.77,0.03,1.21,0.08,1.32c0.12,0.29,0.54,0.62,1.24,0.96v3c-1.12,0.64-1.73,0.99-1.84,1.03c-0.27,0.1-0.72,0.15-1.36,0.15
		c-2.15,0-3.23-1.26-3.23-3.77c0-1.24,0.36-2.6,1.09-4.07c1.01-2.03,1.58-3.28,1.72-3.77c-1.57,0.22-2.94,1.08-4.13,2.56
		c-1.65,2.05-2.9,3.36-3.75,3.92v-1.91c0.74-0.74,1.69-1.84,2.85-3.29c-0.49-0.6-0.98-1.2-1.47-1.8c-0.06-0.08-0.08-0.52-0.08-1.32
		c0-1.17,0.36-2.26,1.09-3.27c0.84-1.17,1.91-1.76,3.21-1.76c0.18,0,0.36,0.01,0.52,0.04c0.45,0.45,0.67,1.06,0.67,1.82
		c0,0.41-0.08,0.99-0.24,1.76c-0.16,0.77-0.24,1.29-0.24,1.57c0,0.15,0.01,0.29,0.04,0.4c2.39-0.7,4.35-2.54,5.89-5.54H255.67z
		 M247.2,15.2c0-0.07-0.17-0.28-0.52-0.63c-0.17,0.17-0.49,0.25-0.96,0.25v0.86l0.52-0.44c0.14,0.08,0.31,0.1,0.52,0.06
		C247.07,15.24,247.21,15.2,247.2,15.2z M253.53,15.2v-0.59h-0.38v0.59H253.53z M253.97,28.12h-0.38V27.3h0.38V28.12z M257.83,23.26
		c-1.83,1.92-3.22,2.98-4.15,3.19c0.42,0.39,0.61,0.73,0.57,1.03c0-0.13,0.08-0.2,0.23-0.21c0.11,0.1,0.17,0.31,0.17,0.65l0.71-0.65
		c0.14,0.14,0.29,0.21,0.44,0.21c0.27,0,0.62-0.21,1.05-0.62c0.43-0.41,0.75-0.81,0.96-1.21c0.1-0.2,0.13-0.57,0.11-1.13
		C257.86,23.73,257.83,23.31,257.83,23.26z M255.08,27.45h-0.38v-0.82h0.38V27.45z M255.76,26.55v-0.59h-0.38v0.59H255.76z"/>
	<path class="st0" d="M268.59,23.36c0.04,0.18,0.06,0.37,0.06,0.57c0,1.2-0.94,2.6-2.81,4.19c-1.12,0.95-1.89,1.57-2.31,1.84
		c-0.8,0.52-1.55,0.78-2.26,0.78c-2.1,0-3.15-1.79-3.15-5.37c0-3.42,0.6-5.77,1.8-7.05c-0.14-0.11-0.29-0.17-0.44-0.17v-0.71
		c-0.01-0.15,0.17-0.68,0.57-1.59c0.45-1.02,0.85-1.62,1.22-1.8c-0.08-0.15-0.2-0.23-0.34-0.23c0.28,0,0.42-0.26,0.42-0.78
		c0.01,0.07,0.1,0.22,0.25,0.44c0.01,0,0.03-0.01,0.04-0.04c0.01-0.03,0.01-0.12,0-0.27c-0.01-0.08,0.08-0.13,0.27-0.13
		c0.2,0,0.84-0.11,1.95-0.33c1.31-0.28,2.19-0.45,2.64-0.52c-0.17,0.41-0.35,1.16-0.55,2.26c-0.11,0.66-0.41,1.12-0.88,1.38
		c0.14,0.11,0.28,0.17,0.42,0.17c-1.64,4.89-2.45,7.64-2.45,8.24c0,0.67,0.49,1.5,1.47,2.47C265.89,25.82,267.25,24.7,268.59,23.36z
		 M263.31,14.26l-1.55-0.61v0.31l1.43,0.61L263.31,14.26z M267.54,6.33c0,0.52-0.26,1.06-0.77,1.61c-0.51,0.56-1.04,0.84-1.6,0.84
		h-0.69c-1.24-0.67-1.87-1.49-1.87-2.45c0-0.57,0.26-1.13,0.79-1.67s1.09-0.81,1.69-0.81c0.61,0,1.19,0.31,1.72,0.94
		C267.3,5.38,267.54,5.89,267.54,6.33z M265.07,15.33c-0.08,0-0.27-0.03-0.56-0.09c-0.29-0.06-0.46-0.09-0.53-0.09l0.82,0.8
		C264.79,15.81,264.88,15.61,265.07,15.33z"/>
	<path class="st0" d="M272.4,17.34c-0.41,0.41-0.61,0.86-0.61,1.36c0.03-0.56-0.06-0.96-0.25-1.22c-0.13,0.04-0.33,0.17-0.61,0.38
		c0.2,0.31,0.39,0.62,0.59,0.92c0.26,0.43,0.4,0.78,0.4,1.03c0,1.23-0.38,3.15-1.13,5.75c0-0.18-0.15-0.43-0.46-0.73
		c-0.25,0.45-0.46,1.04-0.61,1.78c-0.21,1.01-0.33,1.56-0.36,1.66c-0.18-0.27-0.34-0.66-0.46-1.2c-0.18-0.78-0.29-1.2-0.31-1.26
		c-0.15,0.01-0.23,0.1-0.23,0.25c0.01-0.15,0.02-0.31,0.02-0.48c0-0.35-0.04-0.89-0.13-1.64c-0.08-0.74-0.13-1.29-0.13-1.64
		c0-0.91,0.24-1.58,0.71-2.01c0.29-0.27,0.44-0.43,0.44-0.5c0-0.03-0.1-0.13-0.29-0.29c0.22,0.13,0.41,0.19,0.54,0.19
		c0.11-0.1,0.01-0.3-0.31-0.61c0.38-0.38,0.82-0.94,1.32-1.68c0.64-0.95,1.08-1.57,1.32-1.87c-0.1,0.29-0.1,0.63-0.02,1.01
		C271.94,16.96,272.13,17.23,272.4,17.34z M271,22.67h-0.38l-0.38,1.89h0.36L271,22.67z M284.09,23.38
		c0.03,0.46,0.02,1.17-0.02,2.12c-0.52,0.62-1.45,1.47-2.81,2.58c-1.75,1.43-2.98,2.14-3.71,2.14c-0.2,0-0.27-0.04-0.23-0.12
		c0.04-0.08-0.04-0.12-0.25-0.12c-0.27,0-0.41,0.03-0.42,0.08c0.03-0.13,0.04-0.04,0.04,0.27c0-0.41-0.08-0.69-0.23-0.86
		c-0.11,0.11-0.17,0.51-0.17,1.2h-2.62c0.17-0.81,0.25-1.46,0.25-1.95c-0.1,0-0.17-0.06-0.21-0.18c-0.04-0.12-0.1-0.21-0.17-0.28
		c-0.01,0.04-0.08,0.46-0.19,1.26c-0.06,0.46-0.21,0.69-0.46,0.69c-0.2,0-0.29,0.04-0.29,0.13c0,0.08-0.11,0.13-0.32,0.13
		c-0.24,0-0.52-0.11-0.84-0.31c-0.49-0.34-0.74-0.5-0.75-0.5c0.01-0.32,0.1-0.88,0.27-1.68c-0.08,0-0.15-0.04-0.19-0.13
		c-0.06-0.14-0.12-0.25-0.19-0.31c-0.17,0.31-0.25,0.84-0.25,1.59c0-0.33-0.01-0.89-0.03-1.66c-0.02-0.77-0.03-1.31-0.03-1.63
		c0.27,0.17,0.48,0.25,0.63,0.25c0,0.08-0.15,0.28-0.46,0.59c0.27,0.27,0.45,0.4,0.54,0.4c0.01-0.1,0.17-0.84,0.48-2.22
		c0.2-0.89,0.29-1.63,0.29-2.2c0.21,0.21,0.43,0.25,0.65,0.1c-0.49-0.43-0.73-0.8-0.73-1.11c0-0.32,0.2-0.89,0.61-1.7
		c-0.01,0.17,0.06,0.33,0.21,0.48c0.03-0.1,0.04-0.2,0.04-0.29c0-0.21-0.06-0.44-0.19-0.7c-0.13-0.26-0.19-0.42-0.19-0.47
		c0-0.46,0.19-1.43,0.57-2.91c0.42-1.65,0.76-2.47,1.03-2.47c0.25,0,0.42,0.05,0.5,0.16s0.16,0.21,0.23,0.33
		c0.17-0.15,0.13-0.36-0.13-0.61c0.48-0.45,1.03-0.8,1.68-1.07c0,0.5,0.1,0.9,0.31,1.2c0.17-0.1,0.25-0.57,0.25-1.43
		c0.15,0,0.56-0.05,1.23-0.15c0.66-0.1,1.1-0.15,1.31-0.15c0.92,0,1.8,0.43,2.62,1.3c0.78,0.82,1.17,1.66,1.17,2.5
		c0,0.49-0.27,0.97-0.8,1.45c-0.46,0.43-0.85,0.65-1.15,0.65c-0.18,0-0.38,0.08-0.6,0.24c-0.22,0.16-0.43,0.24-0.64,0.24
		c-0.2,0-0.27-0.04-0.23-0.13s-0.04-0.13-0.25-0.13c-0.24,0-0.39,0.09-0.46,0.27c-0.11,0.28-0.17,0.43-0.19,0.46
		c0-0.41-0.03-0.92-0.07-1.53c-0.05-0.62-0.07-1.03-0.07-1.26c0-0.77,0.19-1.41,0.57-1.93c-0.32,0-0.88-0.07-1.67-0.21
		c-0.79-0.14-1.26-0.21-1.42-0.21c-0.25,0-0.36,0.09-0.31,0.27c0.08,0.49,0.13,0.64,0.13,0.46c-0.08-0.25-0.25-0.58-0.5-0.99
		c-0.01,0.11-0.07,0.27-0.17,0.46c-0.1,0.2-0.15,0.33-0.15,0.4c0,0.13,0.13,0.2,0.4,0.21c-0.68,0.66-1.26,1.67-1.74,3.05
		c-0.48,1.38-0.71,2.66-0.71,3.85c0,0.66,0.28,1.74,0.84,3.25c0.6,1.68,1.14,2.52,1.61,2.52h2.31c1.22,0,2.26-0.28,3.15-0.84
		C281.41,25.83,282.5,24.89,284.09,23.38z M271.27,20.13V19h-0.44v1.13H271.27z M272.01,29.21h-0.44v-0.67h0.44V29.21z
		 M272.24,28.22v-1.89h-0.42v1.89H272.24z M272.76,14.83l-0.29,1.15h-0.42l0.29-1.15H272.76z M272.74,24.87h-0.42l-0.27,1.38h0.44
		L272.74,24.87z M273.22,26.84h-0.42l-0.25,1.87h0.42L273.22,26.84z M273.58,25.67v-0.42h-0.65v0.42H273.58z M274.21,15.73v-0.65
		h-0.42v0.65H274.21z M274.21,28.22v-2.37h-0.42v2.37H274.21z M276.79,27.34c-0.45,0.06-0.98,0.28-1.59,0.67
		c-0.18-0.18-0.2-0.35-0.04-0.5c-0.36,0.59-0.4,1.33-0.1,2.22c-0.04-0.11-0.06-0.23-0.06-0.36c0-0.36,0.24-0.75,0.71-1.17
		C276.06,27.91,276.42,27.62,276.79,27.34z M277.77,27.6c-0.28-0.01-0.59,0.13-0.92,0.44c-0.42,0.38-0.68,0.59-0.78,0.63
		c0.46,0,0.74-0.05,0.84-0.15c0.24,0.48,0.31,0.88,0.23,1.22C277.27,29.18,277.48,28.46,277.77,27.6z M277.88,13.53l-0.31-0.71
		l-0.36,0.13l0.31,0.59H277.88z M279.6,16.31h-0.38l-0.29,0.82l0.36,0.13L279.6,16.31z M280.1,14.09h-0.44l-0.25,1.38h0.42
		L280.1,14.09z"/>
	<path class="st0" d="M284.94,20.38l-0.46,2.26h-0.33l0.46-2.26H284.94z M300,23.7l-0.29,2.22c0-0.32-0.12-0.48-0.36-0.48
		c0.2,0.94-1.11,2.2-3.92,3.8c0-0.04,0.03-0.2,0.09-0.47c0.06-0.27,0.09-0.49,0.09-0.66c-0.11,0-0.31-0.13-0.59-0.4
		c-0.07,0.07-0.08,0.26-0.02,0.57c0.08,0.49,0.12,0.95,0.12,1.38c-1.63,0.63-3.12,0.94-4.44,0.94c-1.92,0-3.44-0.53-4.56-1.6
		c-1.13-1.07-1.69-2.52-1.69-4.35c0-0.22,0.01-0.45,0.02-0.67c0.13-0.15,0.25-0.3,0.38-0.44c0.15-0.2,0.31-0.28,0.48-0.25
		c0,0.49,0.13,0.92,0.4,1.3h0.15c-0.12-0.32-0.22-1.08-0.27-2.29c-0.04-0.99-0.2-1.6-0.48-1.82c0.11-0.11,0.24-0.28,0.38-0.5
		c-0.04-0.49,0.01-1.16,0.15-2.01c0.95-1.82,2.26-3.26,3.92-4.34c1.57-1.01,3.13-1.51,4.7-1.51c2.82,0,4.24,1.22,4.24,3.67
		c0,1.51-0.71,2.77-2.12,3.8c-0.67,0.49-2.33,1.34-4.97,2.54v-1.26c0.63-0.32,1.32-0.97,2.08-1.95c0.81-1.06,1.22-1.96,1.22-2.68
		c0-0.45-0.12-0.94-0.36-1.47c-0.34-0.73-0.77-1.09-1.3-1.09c-0.8,0-1.62,0.58-2.47,1.74c-0.78,1.05-1.22,1.96-1.3,2.73
		c-0.07-0.25-0.04-0.38,0.1-0.38l-0.34-0.29c-0.22,0.92-0.45,1.89-0.69,2.89c-0.1-0.42-0.06-0.82,0.13-1.22l-0.34-0.34
		c-0.15,0.21-0.29,0.52-0.4,0.92c-0.11,0.41-0.24,0.72-0.4,0.94c0.32-0.03,0.8,0.01,1.45,0.13c0.1-0.1,0.2-0.36,0.29-0.78v1.3
		c0.07,0.08,0.13,0.17,0.19,0.25c0.06,0.08,0.2,0.13,0.42,0.13c0.14,0,0.21-0.03,0.21-0.1c0-0.03-0.01-0.07-0.04-0.13
		c-0.03-0.06-0.04-0.1-0.04-0.13c0.01-0.07,0.08-0.1,0.21-0.1c0.22,0,0.48,0.15,0.78,0.46c0.08-0.08,0.13-0.23,0.15-0.45
		s0.06-0.36,0.13-0.43c0.06,1.15-0.25,1.81-0.92,1.99c-0.24,0-0.47-0.22-0.69-0.67c-0.21,0.21-0.31,0.54-0.31,1.01
		c0,0.71,0.38,1.52,1.13,2.43c0.67,0.84,1.23,1.31,1.68,1.41c0.39,0.08,0.79,0.16,1.2,0.23c0.61,0.14,0.96,0.31,1.03,0.5
		c0.33-0.33,0.54-0.5,0.63-0.5c0.07,0,0.14,0.02,0.21,0.06l0.5-0.46c-0.01,0.17,0.05,0.32,0.19,0.46
		C295.97,26.78,297.4,25.6,300,23.7z M286.73,20.95l-0.23-0.21l-0.55,0.52l0.21,0.25L286.73,20.95z M286.54,20.53l-0.1-1.26h-0.4
		l0.13,1.26H286.54z M287.44,24.39h-0.4l-0.23,1.26h0.38L287.44,24.39z M288.82,21.01c-0.42,0.67-0.73,1.49-0.94,2.45
		c-0.14-0.13-0.21-0.34-0.21-0.65c0-0.75,0.19-1.34,0.57-1.76h-0.86v2.6c0.25,0,0.41,0.13,0.46,0.38c-0.22,1.19-0.47,2.86-0.73,5.01
		c0.13-0.55,0.48-1.42,1.05-2.62c-0.11-0.31-0.17-0.65-0.17-1.03c0-0.5,0.13-1.24,0.4-2.2C288.65,22.17,288.8,21.44,288.82,21.01z
		 M288.76,17.84v-0.82h-0.38v0.82H288.76z M289.64,16.65l-0.31-0.13l-0.27,0.59l0.31,0.13L289.64,16.65z M292.09,28.54l-0.27-0.65
		l-0.31,0.13l0.27,0.52H292.09z M293,20.74l-0.29-0.65l-0.31,0.13l0.27,0.52H293z M294.55,29.21v-0.82h-0.38v0.82H294.55z
		 M295.2,18.73l-0.23-0.23l-0.55,0.54l0.21,0.23L295.2,18.73z"/>
</g>
</svg>
